<svg width="93" height="63" viewBox="0 0 93 63" fill="none" xmlns="http://www.w3.org/2000/svg">
<path fill-rule="evenodd" clip-rule="evenodd" d="M90.2737 59.9104C88.5275 61.853 86.1595 62.9443 83.6903 62.9443C81.2212 62.9443 78.8532 61.853 77.107 59.9104L46.4438 25.7879L15.7805 59.9104C14.0244 61.798 11.6722 62.8424 9.23073 62.8188C6.78925 62.7952 4.45377 61.7054 2.72732 59.7842C1.00087 57.863 0.0215678 55.264 0.000352003 52.5471C-0.0208638 49.8302 0.917701 47.2127 2.61389 45.2584L39.8605 3.80975C41.6066 1.86715 43.9747 0.775852 46.4438 0.775852C48.9129 0.775852 51.2809 1.86715 53.0271 3.80975L90.2737 45.2584C92.0193 47.2015 93 49.8367 93 52.5844C93 55.3321 92.0193 57.9672 90.2737 59.9104Z" fill="#2C59AC"/>
</svg>
