<svg width="20" height="30" viewBox="0 0 20 30" fill="none" xmlns="http://www.w3.org/2000/svg">
<path fill-rule="evenodd" clip-rule="evenodd" d="M0.976025 29.1205C0.351077 28.5573 0 27.7934 0 26.9969C0 26.2004 0.351077 25.4365 0.976025 24.8732L11.9535 14.9819L0.976025 5.0905C0.368788 4.52398 0.0327814 3.76523 0.0403767 2.97765C0.0479719 2.19008 0.398561 1.4367 1.01663 0.87978C1.6347 0.32286 2.47081 0.00695736 3.34486 0.000113549C4.21891 -0.00673026 5.06097 0.296033 5.68969 0.843191L19.024 12.8582C19.6489 13.4215 20 14.1854 20 14.9819C20 15.7784 19.6489 16.5422 19.024 17.1055L5.68969 29.1205C5.06456 29.6837 4.2168 30 3.33286 30C2.44892 30 1.60116 29.6837 0.976025 29.1205Z" fill="#2C59AC"/>
</svg>
