<svg width="649" height="524" viewBox="0 0 649 524" fill="none" xmlns="http://www.w3.org/2000/svg">
<g clip-path="url(#clip0)">
<path opacity="0.1" d="M380.616 88.5534C339.55 87.1035 300.433 73.642 263.086 58.911C225.739 44.18 188.747 27.8574 148.665 20.0537C122.885 15.0339 93.3995 14.325 72.632 28.36C52.6387 41.8924 46.1794 65.1875 42.7086 86.8264C40.0945 103.104 38.559 120.232 45.7226 135.472C50.6907 146.053 59.5168 154.946 65.6144 165.115C86.8514 200.376 71.8452 243.86 48.8316 278.29C38.045 294.446 25.5135 309.866 17.1887 327.046C8.86399 344.225 5.00618 363.938 12.2903 381.478C19.5174 398.877 36.7316 411.92 55.3734 421.102C93.2472 439.758 137.859 445.093 181.393 448.116C277.73 454.811 374.575 451.911 471.166 449.011C506.915 447.935 542.815 446.846 577.979 441.233C597.51 438.114 617.668 433.172 631.849 421.225C649.844 406.062 654.304 380.383 642.249 361.373C622.014 329.482 566.108 321.562 551.946 287.331C544.167 268.496 552.161 247.514 563.468 230.038C587.732 192.559 628.397 159.676 630.542 116.836C632.014 87.4064 612.459 57.9444 582.231 44.019C550.55 29.3717 506.604 31.2276 483.241 55.3862C459.168 80.2793 416.872 89.8293 380.616 88.5534Z" fill="#2C59AC"/>
<path d="M276.297 444.958L59.1172 443.882L37.5376 392.478L113.844 386.852L100.544 330.493L251.468 310.626L106.946 259.603L119.713 256.523L352.101 295.025L339.303 382.98L321.01 431.316L276.297 444.958Z" fill="#2C59AC"/>
<path d="M62.4482 422.352C62.4482 422.352 75.7729 420.187 83.7677 429.75C83.7677 429.75 77.9048 434.441 65.2908 427.946L62.4482 422.352Z" fill="#2C59AC"/>
<path d="M61.0523 422.14C61.0523 422.14 52.5499 432.766 56.7376 444.597C56.7376 444.597 63.6665 441.781 64.4215 427.437L61.0523 422.14Z" fill="#2C59AC"/>
<path d="M53.4128 404.67C53.4128 404.67 58.7427 394.74 80.0622 408.64C80.0622 408.64 77.2196 415.316 67.8035 414.774C58.3874 414.233 55.9001 409.903 53.4128 404.67Z" fill="#2C59AC"/>
<path d="M52.0361 403.955C52.0361 403.955 40.9766 402.666 39.9043 428.378C39.9043 428.378 46.9156 429.853 51.8965 421.721C56.8774 413.589 54.8343 409.026 52.0361 403.955Z" fill="#2C59AC"/>
<path d="M45.5957 383.444C45.5957 383.444 51.8139 365.942 74.377 378.392C74.377 378.392 69.2248 394.45 47.9053 389.398L45.5957 383.444Z" fill="#2C59AC"/>
<path d="M38.667 357.281C38.667 357.281 50.3927 339.599 71.1792 355.992C71.1792 355.992 63.895 372.592 40.4436 363.57L38.667 357.281Z" fill="#2C59AC"/>
<path d="M36.1797 332.381C36.1797 332.381 49.8597 316.136 70.4431 332.381C70.4431 332.381 57.4738 346.635 36.1797 336.531V332.381Z" fill="#2C59AC"/>
<path d="M34.0476 308.197C34.0476 308.197 47.9053 291.236 67.6258 307.295C67.6258 307.295 51.9915 322.271 34.0476 312.166V308.197Z" fill="#2C59AC"/>
<path d="M35.2913 286.726C35.2913 286.726 49.8849 264.893 68.3364 279.689C68.3364 279.689 52.7022 298.454 35.2913 290.876V286.726Z" fill="#2C59AC"/>
<path d="M38.667 261.646C38.667 261.646 54.1236 239.994 72.0675 256.593C72.0675 256.593 53.7683 275.358 38.667 265.615V261.646Z" fill="#2C59AC"/>
<path d="M43.819 239.227C43.819 239.227 62.1182 218.877 78.0824 226.983C78.0824 226.983 59.0155 248.596 43.0195 244.627L43.819 239.227Z" fill="#2C59AC"/>
<path d="M50.215 217.975C50.215 217.975 71.3314 193.049 83.6155 201.375C83.6155 201.375 68.0573 220.707 48.7175 222.64L50.215 217.975Z" fill="#2C59AC"/>
<path d="M59.447 193.326C59.447 193.326 77.9302 172.976 91.4325 178.028C91.4325 178.028 75.6206 199.139 56.9661 199.68L59.447 193.326Z" fill="#2C59AC"/>
<path d="M67.8036 170.27C67.8036 170.27 88.2348 150.783 97.1179 154.211C97.1179 154.211 82.3719 175.863 66.9153 174.6L67.8036 170.27Z" fill="#2C59AC"/>
<path d="M75.9761 148.979C75.9761 148.979 93.5646 125.697 103.165 127.501C103.165 127.501 92.4987 148.257 75.9761 151.344V148.979Z" fill="#2C59AC"/>
<path d="M84.8464 120.271C84.8464 120.271 100.392 102.427 108.793 102.466C108.793 102.466 96.5214 126.309 84.2056 126.09L84.8464 120.271Z" fill="#2C59AC"/>
<path d="M90.1001 101.158L105.119 63.9889C105.119 63.9889 105.868 97.5879 88.1902 108.053L90.1001 101.158Z" fill="#2C59AC"/>
<path d="M96.1977 60.1676C96.1977 60.1676 98.685 29.1268 97.086 26.6008C97.086 26.6008 107.822 52.409 96.0962 73.8804L96.1977 60.1676Z" fill="#2C59AC"/>
<path d="M45.012 383.031C45.012 383.031 29.4412 373.23 19.3589 397.208C19.3589 397.208 33.2165 406.552 46.8458 389.147L45.012 383.031Z" fill="#2C59AC"/>
<path d="M38.1657 356.282C38.1657 356.282 19.067 347.435 9.80322 372.469C9.80322 372.469 24.5555 382.78 39.9043 362.61L38.1657 356.282Z" fill="#2C59AC"/>
<path d="M35.2913 333.87C35.2913 333.87 21.6113 317.625 1.02783 333.87C1.02783 333.87 13.9972 348.124 35.2913 338.02V333.87Z" fill="#2C59AC"/>
<path d="M33.5782 308.197C33.5782 308.197 19.7205 291.236 0 307.295C0 307.295 15.6343 322.271 33.5782 312.166V308.197Z" fill="#2C59AC"/>
<path d="M35.2914 287.344C35.2914 287.344 25.5708 262.889 4.44165 273.406C4.44165 273.406 15.8628 295.09 34.4285 291.404L35.2914 287.344Z" fill="#2C59AC"/>
<path d="M39.8914 261.523C39.8914 261.523 30.2279 236.643 8.80054 248.178C8.80054 248.178 21.9222 270.983 38.9397 265.364L39.8914 261.523Z" fill="#2C59AC"/>
<path d="M45.8811 239.349C45.8811 239.349 42.0741 212.072 24.3079 209.63C24.3079 209.63 28.0768 238.396 43.489 244.266L45.8811 239.349Z" fill="#2C59AC"/>
<path d="M50.6653 218.026C50.6653 218.026 49.1806 185.162 34.4917 184.015C34.4917 184.015 34.9866 208.959 49.0092 222.679L50.6653 218.026Z" fill="#2C59AC"/>
<path d="M60.9698 192.405C60.9698 192.405 56.5917 165.076 42.5691 161.738C42.5691 161.738 44.3076 188.203 59.5802 199.113L60.9698 192.405Z" fill="#2C59AC"/>
<path d="M69.466 170.495C69.466 170.495 69.3201 142.026 60.7542 137.844C60.7542 137.844 55.4434 163.62 66.9851 174.13L69.466 170.495Z" fill="#2C59AC"/>
<path d="M76.6297 148.657C76.6297 148.657 75.4304 119.343 66.56 115.212C66.56 115.212 63.5271 138.411 75.3035 150.577L76.6297 148.657Z" fill="#2C59AC"/>
<path d="M86.0836 122.61C86.0836 122.61 86.0328 98.7672 79.7005 93.1738C79.7005 93.1738 73.4061 119.291 82.7778 127.404L86.0836 122.61Z" fill="#2C59AC"/>
<path d="M89.3577 99.985L83.1966 60.3029C83.1966 60.3029 74.8274 92.8193 89.6495 107.151L89.3577 99.985Z" fill="#2C59AC"/>
<path d="M90.557 60.5413C90.557 60.5413 74.745 33.8632 75.0686 30.899C75.0686 30.899 76.7501 58.8595 96.6419 72.7849L90.557 60.5413Z" fill="#2C59AC"/>
<path d="M92.4097 52.6603C92.4097 52.6603 77.486 14.7696 70.7349 11.7023C70.7349 11.7023 92.0543 22.7086 93.6533 51.5777L92.4097 52.6603Z" fill="#2C59AC"/>
<path d="M84.1295 126.315L83.1079 125.999C95.7029 84.2875 98.8437 57.6931 91.9593 51.0236L92.689 50.2374C99.9922 57.2742 97.029 83.5786 84.1295 126.315Z" fill="#444053"/>
<path d="M49.4471 223.98L47.937 223.433C49.2758 219.611 50.7162 215.732 52.2263 211.911C65.3733 178.634 76.566 147.677 83.7423 123.912L85.0557 123.267C77.8667 147.078 66.8707 179.22 53.711 212.542C52.2072 216.293 50.7733 220.153 49.4471 223.98Z" fill="#444053"/>
<path d="M81.2233 453.567C81.0203 453.342 60.6081 429.995 46.3761 390.139C38.037 366.805 33.3961 342.275 32.6264 317.463C31.6492 286.449 38.0577 251.818 49.0347 220.359L50.2276 221.777C25.5833 292.383 35.3738 352.886 48.3621 389.32C62.4419 428.816 82.6256 451.905 82.8223 452.137L81.2233 453.567Z" fill="#444053"/>
<path d="M400.203 404C400.203 404 385.819 421.83 397.24 448.786L282.394 499.371L271.373 501.717L266.297 479.163L269.691 450.7V435.144L400.203 404Z" fill="#D5D6DB"/>
<path d="M37.5376 392.478L196.495 363.048L407.119 397.124L276.297 444.958L37.5376 392.478Z" fill="#2C59AC"/>
<path d="M37.5376 392.478L196.495 363.048L407.119 397.124L276.297 444.958L37.5376 392.478Z" fill="#2C59AC"/>
<path d="M37.5375 392.472C37.5375 392.472 22.671 421.077 39.8027 447.497L275.522 499.371C275.522 499.371 260.891 476.585 276.277 444.958L37.5375 392.472Z" fill="#2C59AC"/>
<path opacity="0.1" d="M37.5375 392.472C37.5375 392.472 22.671 421.077 39.8027 447.497L275.522 499.371C275.522 499.371 260.891 476.585 276.277 444.958L37.5375 392.472Z" fill="black"/>
<path opacity="0.1" d="M44.5614 402.389C44.5614 402.389 36.0654 423.319 44.5614 436.864Z" fill="black"/>
<path d="M275.522 499.371L407.119 442.342C407.119 442.342 414.48 443.953 409.721 449.43C404.962 454.907 278.06 504.848 278.06 504.848L39.8027 447.497L275.522 499.371Z" fill="#2C59AC"/>
<path opacity="0.1" d="M275.522 499.371L407.119 442.342C407.119 442.342 414.48 443.953 409.721 449.43C404.962 454.907 278.06 504.848 278.06 504.848L39.8027 447.497L275.522 499.371Z" fill="black"/>
<path opacity="0.1" d="M264.736 450.719C264.736 450.719 252.046 466.184 264.736 489.383Z" fill="black"/>
<path opacity="0.1" d="M326.173 450.457L269.252 469.744L269.453 470.355L326.374 451.069L326.173 450.457Z" fill="black"/>
<path opacity="0.1" d="M337.574 448.538L269.234 474.931L269.46 475.533L337.8 449.14L337.574 448.538Z" fill="black"/>
<path opacity="0.1" d="M348.045 448.446L269.616 481.048L269.856 481.645L348.285 449.042L348.045 448.446Z" fill="black"/>
<path opacity="0.1" d="M359.431 445.654L270.531 486.438L270.792 487.026L359.692 446.241L359.431 445.654Z" fill="black"/>
<path opacity="0.1" d="M368.996 445.667L271.235 489.065L271.489 489.655L369.251 446.258L368.996 445.667Z" fill="black"/>
<path opacity="0.1" d="M389.919 442.058L272.709 493.472L272.961 494.064L390.171 442.65L389.919 442.058Z" fill="black"/>
<path opacity="0.3" d="M96.5911 395.623L208.264 371.78L276.296 384.99L184.788 414.955L96.5911 395.623Z" fill="white"/>
<path d="M407.119 397.124C407.119 397.124 412.893 399.489 409.505 403.143C406.117 406.797 276.277 444.958 276.277 444.958L407.119 397.124Z" fill="#2C59AC"/>
<path d="M463.203 342.022C463.203 342.022 448.825 359.846 460.247 386.807L345.401 437.393L334.379 439.751L329.303 417.197L332.749 388.741V373.165L463.203 342.022Z" fill="#D5D6DB"/>
<path d="M100.544 330.493L259.495 301.07L470.126 335.146L339.303 382.98L100.544 330.493Z" fill="#3A3768"/>
<path d="M100.519 330.493C100.519 330.493 85.6459 359.098 102.778 385.519L338.497 437.393C338.497 437.393 323.872 414.587 339.278 382.973L100.519 330.493Z" fill="#3A3768"/>
<path opacity="0.1" d="M100.519 330.493C100.519 330.493 85.6459 359.098 102.778 385.519L338.497 437.393C338.497 437.393 323.872 414.587 339.278 382.973L264.736 366.586L100.519 330.493Z" fill="black"/>
<path opacity="0.1" d="M107.562 340.411C107.562 340.411 99.0721 361.334 107.562 374.886Z" fill="black"/>
<path d="M338.523 437.393L470.126 380.363C470.126 380.363 477.48 381.974 472.721 387.452C467.962 392.929 341.061 442.87 341.061 442.87L102.803 385.519L338.523 437.393Z" fill="#3A3768"/>
<path opacity="0.1" d="M338.523 437.393L470.126 380.363C470.126 380.363 477.48 381.974 472.721 387.452C467.962 392.929 341.061 442.87 341.061 442.87L102.803 385.519L338.523 437.393Z" fill="black"/>
<path opacity="0.1" d="M327.736 388.741C327.736 388.741 315.046 404.206 327.736 427.405Z" fill="black"/>
<path opacity="0.1" d="M389.178 388.486L332.257 407.772L332.458 408.384L389.379 389.097L389.178 388.486Z" fill="black"/>
<path opacity="0.1" d="M400.587 386.564L332.247 412.956L332.473 413.558L400.813 387.166L400.587 386.564Z" fill="black"/>
<path opacity="0.1" d="M411.049 386.462L332.619 419.065L332.86 419.661L411.289 387.059L411.049 386.462Z" fill="black"/>
<path opacity="0.1" d="M422.442 383.672L333.542 424.456L333.803 425.043L422.703 384.259L422.442 383.672Z" fill="black"/>
<path opacity="0.1" d="M431.998 383.677L334.237 427.074L334.491 427.665L432.252 384.267L431.998 383.677Z" fill="black"/>
<path opacity="0.1" d="M452.926 380.068L335.716 431.482L335.968 432.073L453.178 380.66L452.926 380.068Z" fill="black"/>
<path opacity="0.45" d="M159.598 333.644L271.271 309.802L339.303 323.012L247.794 352.976L159.598 333.644Z" fill="white"/>
<path d="M470.126 335.146C470.126 335.146 475.893 337.511 472.512 341.158C469.13 344.805 339.303 382.973 339.303 382.973L470.126 335.146Z" fill="#3A3768"/>
<path d="M469.168 271.118C469.168 271.118 454.784 303.126 466.205 330.081L351.359 366.489L340.363 368.854L335.287 346.3L338.681 317.837V302.262L469.168 271.118Z" fill="#D5D6DB"/>
<path d="M106.528 259.596L265.484 230.167L476.116 264.243L345.287 312.076L106.528 259.596Z" fill="#2C59AC"/>
<path d="M106.528 259.59C106.528 259.59 91.6357 288.195 108.767 314.615L344.487 366.489C344.487 366.489 329.855 343.684 345.261 312.076L106.528 259.59Z" fill="#2C59AC"/>
<path opacity="0.1" d="M106.528 259.59C106.528 259.59 91.6357 288.195 108.767 314.615L344.487 366.489C344.487 366.489 329.855 343.684 345.261 312.076L106.528 259.59Z" fill="black"/>
<path opacity="0.1" d="M113.552 269.507C113.552 269.507 105.056 290.437 113.552 303.983Z" fill="black"/>
<path d="M344.512 366.489L476.109 323.637C476.109 323.637 483.47 325.248 478.711 330.725C473.952 336.203 347.05 371.967 347.05 371.967L108.793 314.615L344.512 366.489Z" fill="#2C59AC"/>
<path opacity="0.1" d="M344.512 366.489L476.109 323.637C476.109 323.637 483.47 325.248 478.711 330.725C473.952 336.203 347.05 371.967 347.05 371.967L108.793 314.615L344.512 366.489Z" fill="black"/>
<path opacity="0.1" d="M333.726 317.837C333.726 317.837 321.036 333.303 333.726 356.501Z" fill="black"/>
<path opacity="0.1" d="M395.17 317.581L338.249 336.868L338.45 337.479L395.371 318.193L395.17 317.581Z" fill="black"/>
<path opacity="0.1" d="M406.575 315.662L338.235 342.055L338.46 342.657L406.8 316.265L406.575 315.662Z" fill="black"/>
<path opacity="0.1" d="M417.03 315.564L338.601 348.167L338.841 348.763L417.27 316.16L417.03 315.564Z" fill="black"/>
<path opacity="0.1" d="M428.432 312.768L339.532 353.552L339.794 354.139L428.693 313.355L428.432 312.768Z" fill="black"/>
<path opacity="0.1" d="M437.992 312.779L340.23 356.176L340.485 356.767L438.246 313.369L437.992 312.779Z" fill="black"/>
<path opacity="0.1" d="M458.918 309.174L341.707 360.588L341.959 361.18L459.169 309.766L458.918 309.174Z" fill="black"/>
<path opacity="0.3" d="M165.581 262.741L277.254 238.898L345.286 252.108L253.778 282.073L165.581 262.741Z" fill="white"/>
<path d="M476.109 264.243C476.109 264.243 481.883 266.607 478.495 270.261C475.107 273.915 345.286 312.076 345.286 312.076L476.109 264.243Z" fill="#2C59AC"/>
<path d="M196.964 68.6286C196.964 68.6286 172.853 67.1529 175.67 84.3326C175.67 84.3326 175.105 87.3677 177.815 88.7467C177.815 88.7467 177.859 87.4579 180.289 87.9025C181.156 88.0538 182.038 88.0971 182.916 88.0314C184.099 87.9492 185.223 87.4788 186.12 86.6911V86.6911C186.12 86.6911 192.903 83.8428 195.543 72.5787C195.543 72.5787 197.497 70.1236 197.446 69.492L193.36 71.2577C193.36 71.2577 194.75 74.2413 193.658 76.7222C193.658 76.7222 193.525 71.3672 192.738 71.4897C192.58 71.4897 190.625 72.5272 190.625 72.5272C190.625 72.5272 193.017 77.7275 191.209 81.5037C191.209 81.5037 191.894 75.0983 189.877 72.9009L187.009 74.6021C187.009 74.6021 189.807 79.97 187.91 84.3519C187.91 84.3519 188.398 77.6308 186.406 75.0146L183.804 77.0766C183.804 77.0766 186.437 82.3672 184.832 86.0016C184.832 86.0016 184.623 78.1786 183.246 77.5857C183.246 77.5857 180.968 79.622 180.625 80.4597C180.625 80.4597 182.427 84.3261 181.304 86.3302C181.304 86.3302 180.625 81.117 180.035 81.0912C180.035 81.0912 177.77 84.5452 177.535 86.8908C177.645 84.7041 178.317 82.5846 179.483 80.7433C178.178 80.9941 176.973 81.6281 176.019 82.5669C176.019 82.5669 176.368 80.1246 180.048 79.912C180.048 79.912 181.92 77.2893 182.421 77.1346C182.421 77.1346 178.76 76.8189 176.546 77.8177C176.546 77.8177 178.5 75.5172 183.087 76.5289L185.625 74.4024C185.625 74.4024 180.816 73.758 178.773 74.4733C178.773 74.4733 181.127 72.437 186.317 73.9191L189.115 72.2243C189.115 72.2243 185.01 71.3286 182.567 71.6508C182.567 71.6508 185.143 70.2395 189.934 71.7668L191.926 70.8582C191.926 70.8582 188.925 70.2589 188.043 70.1622C187.161 70.0656 187.116 69.8207 187.116 69.8207C189.021 69.503 190.976 69.726 192.764 70.4651C192.764 70.4651 197.046 68.8992 196.964 68.6286Z" fill="#2C59AC"/>
<path opacity="0.1" d="M536.172 139.242C536.172 139.242 512.06 137.766 514.878 154.946C514.878 154.946 514.313 157.981 517.022 159.36C517.022 159.36 517.067 158.071 519.497 158.516C520.364 158.664 521.246 158.707 522.124 158.645C523.296 158.557 524.409 158.087 525.296 157.304V157.304C525.296 157.304 532.085 154.456 534.719 143.192C534.719 143.192 536.673 140.737 536.622 140.105L532.549 141.871C532.549 141.871 533.938 144.855 532.847 147.336C532.847 147.336 532.714 141.981 531.933 142.103C531.775 142.103 529.814 143.14 529.814 143.14C529.814 143.14 532.206 148.341 530.404 152.117C530.404 152.117 531.089 145.712 529.065 143.514L526.197 145.215C526.197 145.215 528.995 150.583 527.098 154.965C527.098 154.965 527.587 148.244 525.594 145.628L522.999 147.69C522.999 147.69 525.626 152.98 524.021 156.615C524.021 156.615 523.812 148.792 522.435 148.199C522.435 148.199 520.163 150.235 519.814 151.073C519.814 151.073 521.616 154.939 520.499 156.944C520.499 156.944 519.814 151.73 519.23 151.705C519.23 151.705 516.965 155.159 516.73 157.504C516.84 155.316 517.514 153.196 518.685 151.357C517.378 151.608 516.171 152.242 515.214 153.18C515.214 153.18 515.569 150.738 519.243 150.525C519.243 150.525 521.115 147.903 521.616 147.741C521.616 147.741 517.961 147.432 515.741 148.431C515.741 148.431 517.695 146.13 522.282 147.142L524.82 145.016C524.82 145.016 520.004 144.371 517.968 145.087C517.968 145.087 520.315 143.05 525.512 144.532L528.304 142.838C528.304 142.838 524.199 141.942 521.756 142.264C521.756 142.264 524.332 140.853 529.122 142.38L531.121 141.471C531.121 141.471 528.113 140.872 527.232 140.776C526.35 140.679 526.305 140.434 526.305 140.434C528.21 140.112 530.165 140.335 531.952 141.078C531.952 141.078 536.248 139.513 536.172 139.242Z" fill="#2C59AC"/>
<path opacity="0.1" d="M237.572 174.761C237.572 174.761 227.065 152.639 213.69 163.542C213.69 163.542 210.803 164.522 210.942 167.595C210.942 167.595 212.053 167.009 212.846 169.38C213.142 170.219 213.534 171.019 214.013 171.765C214.662 172.776 215.618 173.545 216.735 173.956C216.735 173.956 222.49 178.583 233.461 175.425C233.461 175.425 236.526 175.96 237.027 175.586L233.524 172.834C233.524 172.834 231.621 175.522 228.969 175.76C228.969 175.76 233.512 173.034 233.023 172.403C232.922 172.274 231.12 171.03 231.12 171.03C231.12 171.03 227.814 175.689 223.689 175.928C223.689 175.928 229.527 173.414 230.428 170.547L227.573 168.833C227.573 168.833 224.318 173.936 219.629 174.387C219.629 174.387 225.644 171.546 226.919 168.504L223.886 167.215C223.886 167.215 220.618 172.126 216.71 172.48C216.71 172.48 223.334 168.478 223.169 166.964C223.169 166.964 220.308 165.946 219.419 166.042C219.419 166.042 216.995 169.516 214.711 169.516C214.711 169.516 218.854 166.365 218.601 165.856C218.601 165.856 214.527 165.533 212.382 166.5C214.315 165.524 216.465 165.08 218.62 165.211C217.765 164.176 216.632 163.417 215.358 163.027C215.358 163.027 217.63 162.15 219.603 165.301C219.603 165.301 222.776 165.682 223.15 166.049C223.15 166.049 221.634 162.659 219.698 161.184C219.698 161.184 222.63 161.783 223.969 166.339L227.046 167.576C227.046 167.576 225.276 162.988 223.645 161.538C223.645 161.538 226.538 162.627 227.801 167.982L230.618 169.632C230.618 169.632 229.394 165.553 227.922 163.549C227.922 163.549 230.39 165.147 231.411 170.134L233.169 171.462C233.169 171.462 232.217 168.504 231.9 167.679C231.583 166.854 231.741 166.687 231.741 166.687C232.948 168.217 233.713 170.057 233.949 172.003C233.949 172.003 237.344 174.955 237.572 174.761Z" fill="#2C59AC"/>
<path opacity="0.1" d="M481.084 107.988C481.084 107.988 470.583 85.8663 457.201 96.7695C457.201 96.7695 454.32 97.749 454.453 100.823C454.453 100.823 455.57 100.243 456.357 102.608C456.653 103.449 457.047 104.252 457.531 104.998C458.178 106.008 459.131 106.775 460.247 107.183V107.183C460.247 107.183 466.008 111.81 476.972 108.659C476.972 108.659 480.037 109.187 480.544 108.813L477.061 106.055C477.061 106.055 475.157 108.749 472.512 108.987C472.512 108.987 477.048 106.255 476.56 105.624C476.458 105.495 474.656 104.251 474.656 104.251C474.656 104.251 471.357 108.91 467.226 109.148C467.226 109.148 473.07 106.635 473.971 103.774L471.071 102.073C471.071 102.073 467.823 107.17 463.127 107.628C463.127 107.628 469.142 104.779 470.424 101.738L467.385 100.449C467.385 100.449 464.117 105.366 460.215 105.714C460.215 105.714 466.833 101.712 466.668 100.204C466.668 100.204 463.812 99.1796 462.924 99.2827C462.924 99.2827 460.5 102.75 458.21 102.75C458.21 102.75 462.359 99.5984 462.106 99.0893C462.106 99.0893 458.032 98.7671 455.881 99.7337C457.814 98.758 459.964 98.3136 462.118 98.4449C461.267 97.4093 460.135 96.6498 458.863 96.2604C458.863 96.2604 461.135 95.384 463.108 98.5352C463.108 98.5352 466.281 98.9218 466.655 99.2891C466.655 99.2891 465.139 95.8931 463.197 94.4174C463.197 94.4174 466.128 95.0232 467.467 99.6049L470.551 100.842C470.551 100.842 468.781 96.2475 467.15 94.7976C467.15 94.7976 470.043 95.8867 471.3 101.242L474.123 102.891C474.123 102.891 472.892 98.8187 471.42 96.8082C471.42 96.8082 473.895 98.4063 474.91 103.394L476.668 104.721C476.668 104.721 475.722 101.764 475.399 100.939C475.075 100.114 475.24 99.9528 475.24 99.9528C476.444 101.484 477.206 103.324 477.442 105.269C477.442 105.269 480.887 108.195 481.084 107.988Z" fill="#2C59AC"/>
<path opacity="0.1" d="M514.643 217.414C514.643 217.414 504.142 195.285 490.741 206.189C490.741 206.189 487.86 207.168 487.993 210.242C487.993 210.242 489.11 209.662 489.897 212.027C490.191 212.868 490.583 213.671 491.065 214.418C491.711 215.427 492.665 216.194 493.78 216.602C493.78 216.602 499.542 221.235 510.512 218.078C510.512 218.078 513.571 218.613 514.078 218.232L510.576 215.481C510.576 215.481 508.672 218.174 506.02 218.413C506.02 218.413 510.557 215.681 510.068 215.049C509.967 214.92 508.165 213.677 508.165 213.677C508.165 213.677 504.865 218.336 500.734 218.58C500.734 218.58 506.578 216.061 507.479 213.2L504.618 211.486C504.618 211.486 501.369 216.589 496.674 217.04C496.674 217.04 502.689 214.192 503.97 211.15L500.931 209.862C500.931 209.862 497.663 214.772 493.761 215.126C493.761 215.126 500.385 211.125 500.221 209.61C500.221 209.61 497.359 208.586 496.471 208.689C496.471 208.689 494.047 212.156 491.756 212.156C491.756 212.156 495.906 209.005 495.652 208.496C495.652 208.496 491.578 208.173 489.427 209.14C491.362 208.165 493.515 207.72 495.671 207.851C494.818 206.814 493.684 206.054 492.41 205.667C492.41 205.667 494.681 204.784 496.655 207.941C496.655 207.941 499.827 208.322 500.201 208.689C500.201 208.689 498.685 205.299 496.75 203.817C496.75 203.817 499.681 204.423 501.02 209.005L504.097 210.242C504.097 210.242 502.327 205.647 500.696 204.204C500.696 204.204 503.59 205.286 504.846 210.648L507.67 212.291C507.67 212.291 506.439 208.218 504.967 206.208C504.967 206.208 507.441 207.806 508.463 212.8L510.22 214.089C510.22 214.089 509.269 211.131 508.951 210.306C508.634 209.481 508.793 209.32 508.793 209.32C509.999 210.85 510.762 212.691 510.994 214.637C510.994 214.637 514.446 217.607 514.643 217.414Z" fill="#2C59AC"/>
<path opacity="0.1" d="M128.139 505.312C136.195 505.312 142.726 504.571 142.726 503.656C142.726 502.742 136.195 502 128.139 502C120.082 502 113.552 502.742 113.552 503.656C113.552 504.571 120.082 505.312 128.139 505.312Z" fill="#2C59AC"/>
<path opacity="0.1" d="M32.5121 477.165C40.5685 477.165 47.0995 476.424 47.0995 475.509C47.0995 474.594 40.5685 473.853 32.5121 473.853C24.4558 473.853 17.9248 474.594 17.9248 475.509C17.9248 476.424 24.4558 477.165 32.5121 477.165Z" fill="#2C59AC"/>
<path opacity="0.1" d="M201.031 524.006C209.088 524.006 215.619 523.265 215.619 522.35C215.619 521.436 209.088 520.694 201.031 520.694C192.975 520.694 186.444 521.436 186.444 522.35C186.444 523.265 192.975 524.006 201.031 524.006Z" fill="#2C59AC"/>
<path opacity="0.1" d="M574.566 483.287C582.622 483.287 589.153 482.545 589.153 481.631C589.153 480.716 582.622 479.975 574.566 479.975C566.51 479.975 559.979 480.716 559.979 481.631C559.979 482.545 566.51 483.287 574.566 483.287Z" fill="#2C59AC"/>
<path opacity="0.1" d="M453.178 475.251C461.235 475.251 467.766 474.51 467.766 473.595C467.766 472.68 461.235 471.939 453.178 471.939C445.122 471.939 438.591 472.68 438.591 473.595C438.591 474.51 445.122 475.251 453.178 475.251Z" fill="#2C59AC"/>
<path opacity="0.1" d="M374.651 514.444C384.18 514.444 391.904 513.096 391.904 511.434C391.904 509.772 384.18 508.425 374.651 508.425C365.123 508.425 357.399 509.772 357.399 511.434C357.399 513.096 365.123 514.444 374.651 514.444Z" fill="#2C59AC"/>
<path d="M382.348 481.186C382.348 481.186 358.326 493.791 370.737 508.638C370.737 508.638 371.904 511.86 375.28 511.634C375.28 511.634 374.607 510.384 377.183 509.385C378.1 509.025 378.971 508.556 379.778 507.987C380.869 507.221 381.684 506.114 382.101 504.836V504.836C382.101 504.836 387.012 498.16 383.205 485.806C383.205 485.806 383.7 482.314 383.268 481.747L380.349 485.813C380.349 485.813 383.363 487.869 383.712 490.891C383.712 490.891 380.54 485.819 379.905 486.38C379.766 486.496 378.458 488.603 378.458 488.603C378.458 488.603 383.687 492.205 384.074 496.884C384.074 496.884 381.13 490.33 377.951 489.396L376.13 492.695C376.13 492.695 381.84 496.226 382.475 501.536C382.475 501.536 379.156 494.802 375.768 493.443L374.429 496.929C374.429 496.929 379.937 500.486 380.444 504.906C380.444 504.906 375.838 497.515 374.182 497.747C374.182 497.747 373.141 501.021 373.281 502.032C373.281 502.032 377.17 504.674 377.24 507.271C377.24 507.271 373.649 502.664 373.097 502.967C373.097 502.967 372.868 507.6 373.972 510.01C373.972 510.01 372.069 506.569 372.38 502.967C371.267 503.966 370.466 505.274 370.077 506.73C370.077 506.73 369.042 504.185 372.45 501.839C372.45 501.839 372.773 498.237 373.167 497.792C373.167 497.792 369.48 499.622 367.913 501.865C367.913 501.865 368.49 498.52 373.49 496.858L374.759 493.327C374.759 493.327 369.759 495.479 368.218 497.373C368.218 497.373 369.328 494.055 375.153 492.463L376.879 489.241C376.879 489.241 372.437 490.762 370.267 492.463C370.267 492.463 371.948 489.608 377.412 488.294L378.814 486.264C378.814 486.264 375.59 487.43 374.689 487.849C373.788 488.268 373.611 488.062 373.611 488.062C375.258 486.647 377.259 485.724 379.391 485.394C379.391 485.394 382.57 481.405 382.348 481.186Z" fill="#2C59AC"/>
<path d="M453.648 243.126C449.498 231.675 426.656 230.598 416.745 233.518C409.702 235.599 394.854 237.945 386.923 239.124L386.409 238.628C387.437 238.318 387.462 237.558 387.335 236.43C387.261 234.944 387.283 233.454 387.399 231.971C392.259 233.505 396.586 229.877 396.586 229.877C402.297 227.299 400.761 216.267 401.853 213.251C402.671 210.996 403.553 197.708 403.947 191.084H404.029L404.074 188.861C404.131 187.9 404.156 187.34 404.156 187.34C404.156 187.34 404.714 171.14 405.806 167.86C406.821 164.844 407.646 149.649 407.773 147.239C407.773 147.033 407.773 146.923 407.773 146.923L407.69 145.518C407.747 144.494 407.773 143.353 407.766 142.155C407.766 136.645 407.202 129.705 407.132 128.584C407.132 128.422 407.132 128.229 407.132 127.997C407.176 125.645 406.884 113.865 397.018 109.413C393.382 107.763 389.01 105.798 384.778 103.884C383.687 94.3143 381.193 84.7966 381.409 75.1563C381.409 73.7064 381.536 72.2565 381.675 70.8131C381.675 71.2319 381.631 71.6572 381.625 72.1019C381.625 73.0363 381.625 73.9771 381.625 74.9115C381.999 62.8547 386.485 50.7336 386.066 38.9346C386.028 40.0881 385.946 41.248 385.838 42.4079C386.057 38.4171 385.646 34.4163 384.62 30.5574C384.239 29.1977 383.725 27.793 382.627 26.8844C381.59 26.1526 380.4 25.674 379.15 25.486C376.148 24.7055 373.097 24.1286 370.02 23.759C369.552 22.3051 368.858 20.9366 367.964 19.7057C361.53 10.7357 351.999 2.30695 340.731 0.373748C335.077 -0.592852 328.573 0.212647 324.728 4.31747C324.327 4.67807 323.949 5.06558 323.599 5.47739C321.53 7.98411 320.642 11.277 318.523 13.7773C318.383 13.9448 318.225 14.0995 318.072 14.2606C313.923 18.0303 307.457 18.8165 302.844 22.1996C302.031 22.8069 301.269 23.4815 300.566 24.2165C298.708 26.0872 297.041 28.1448 295.592 30.3577C293.517 33.3219 291.385 36.4086 290.725 39.9463C289.399 47.0347 294.151 53.7558 295.033 60.8893C297 76.8511 279.608 91.015 282.902 106.764C283.78 110.633 285.721 114.17 288.498 116.965C281.715 123.203 275.941 129.254 275.941 129.254V129.615H274.869L274.977 130.903H274.869L275.459 137.895L274.869 148.077C274.869 148.077 274.869 148.186 274.869 148.392V148.444V148.721C274.869 148.721 274.869 148.831 274.869 149.037H274.907C275.103 152.768 275.884 166.184 276.81 169.013C277.902 172.293 278.454 188.493 278.454 188.493C278.454 188.493 279.659 211.389 280.763 214.418C281.867 217.446 280.3 228.446 286.03 231.043C287.706 232.349 289.69 233.184 291.785 233.466C291.493 235.876 291.677 237.622 292.622 238.17C293.027 238.412 293.485 238.545 293.955 238.557C293.566 239.142 293.22 239.756 292.92 240.393C290.646 240.152 288.412 239.617 286.271 238.802C280.116 236.224 259.691 230.424 253.759 234.503C247.826 238.583 233.55 242.281 240.142 258.701C246.735 275.12 249.806 275.532 249.806 275.532C251.835 277.028 253.615 278.845 255.078 280.913C257.058 283.935 275.503 290.85 280.116 290.85C282.077 290.819 284.037 290.918 285.985 291.146C285.985 291.146 280.979 295.605 281.645 298.196C282.312 300.786 280.122 321.523 280.122 321.523C280.122 321.523 285.198 326.717 287.369 319.906L287.445 320.009C287.851 320.57 290.046 323.102 294.177 319.906C295.867 318.603 297.663 317.448 299.545 316.452L319.544 313.578C321.63 313.445 323.72 313.43 325.807 313.533C328.98 313.797 332.095 311.889 334.056 310.414C338.199 312.012 342.856 313.758 345.071 314.396C349.563 315.685 370.21 321.311 375.038 319.551C376.042 319.146 376.935 318.501 377.64 317.67L382.246 317.818L380.089 318.256C380.089 318.256 384.29 318.327 390 318.404L389.759 318.546L396.923 318.482C407.405 318.578 419.181 318.611 420.729 318.256C423.153 317.708 435.748 318.095 439.46 318.256H440.494C440.494 318.256 454.333 315.453 448.622 301.192C444.232 290.238 430.736 287.054 424.746 286.178C426.434 285.836 427.887 285.572 428.851 285.418C433.032 284.773 441.154 280.907 441.814 279.586C442.474 278.265 449.282 274.43 451.04 272.246C452.797 270.061 457.816 254.577 453.648 243.126ZM339.024 275.172L338.345 275.397L337.888 275.552L337.012 276.428C336.314 275.951 335.566 275.449 334.785 274.933C336.162 275.017 337.577 275.101 339.024 275.172Z" fill="url(#paint0_linear)"/>
<path d="M379.48 207.226C379.48 207.226 389.188 233.002 394.708 230.424C400.228 227.847 398.731 216.892 399.784 213.889C400.837 210.886 402.005 188.113 402.005 188.113C402.005 188.113 402.538 172.003 403.591 168.742C404.568 165.746 405.362 150.635 405.495 148.257C405.495 148.051 405.495 147.941 405.495 147.941L404.448 129.254L398.521 127.752L384.778 132.907L382.875 143.946L382.132 148.257L381.815 150.094L379.48 207.226Z" fill="#BE6F72"/>
<path opacity="0.1" d="M382.678 202.909C382.678 202.909 391.942 210.609 394.734 211.286C397.525 211.962 399.239 217.968 399.239 217.968" fill="black"/>
<path d="M303.561 208.354C303.561 208.354 293.853 234.13 288.333 231.552C282.813 228.975 284.31 218.02 283.257 215.017C282.204 212.014 281.036 189.241 281.036 189.241C281.036 189.241 280.503 173.131 279.45 169.87C278.473 166.874 277.68 151.763 277.546 149.385C277.546 149.179 277.546 149.069 277.546 149.069L278.6 130.381L284.526 128.88L298.269 134.035L300.173 145.074L300.915 149.385L301.233 151.221L303.561 208.354Z" fill="#BE6F72"/>
<path d="M366.777 70.4135H345.109V104.715H366.777V70.4135Z" fill="#3E373A"/>
<path opacity="0.1" d="M366.777 70.4135H345.109V104.715H366.777V70.4135Z" fill="black"/>
<path d="M299.754 234.027C299.754 234.027 292.349 242.294 295.097 243.796C297.844 245.297 315.617 273.438 315.617 273.438C315.617 273.438 373.992 280.739 385 269.784C396.009 258.83 395.787 239.259 395.787 239.259C395.787 239.259 386.942 241.192 385.977 240.142C385.013 239.092 379.715 234.027 379.715 234.027C379.715 234.027 304.83 229.413 299.754 234.027Z" fill="#4B4B5B"/>
<path opacity="0.02" d="M299.754 234.027C299.754 234.027 292.349 242.294 295.097 243.796C297.844 245.297 315.617 273.438 315.617 273.438C315.617 273.438 373.992 280.739 385 269.784C396.009 258.83 395.787 239.259 395.787 239.259C395.787 239.259 386.942 241.192 385.977 240.142C385.013 239.092 379.715 234.027 379.715 234.027C379.715 234.027 304.83 229.413 299.754 234.027Z" fill="black"/>
<path d="M404.841 129.524L385.806 144.99L380.051 145.415L377.938 145.57L342.45 148.212L305.649 145.48L300.173 145.074L293.193 144.558L278.6 130.381C278.6 130.381 288.929 119.143 297.978 111.558C301.543 108.562 304.913 106.139 307.368 105.185L307.787 105.037C309.331 104.425 310.71 103.449 311.81 102.189C318.954 94.7074 325.56 76.2454 325.56 76.2454C325.56 76.2454 357.076 59.7101 353.269 81.4005C349.461 103.091 367.437 97.7296 367.437 97.7296L373.363 100.475L375.705 101.564L381.675 104.341L395.146 110.618C405.717 115.56 404.841 129.524 404.841 129.524Z" fill="#BE6F72"/>
<path opacity="0.1" d="M340.972 93.9084C356.626 93.9084 369.315 81.0207 369.315 65.123C369.315 49.2253 356.626 36.3377 340.972 36.3377C325.318 36.3377 312.628 49.2253 312.628 65.123C312.628 81.0207 325.318 93.9084 340.972 93.9084Z" fill="black"/>
<path opacity="0.1" d="M404.886 150.029H277.546C277.546 149.823 277.546 149.713 277.546 149.713L278.6 131.026C278.6 131.026 288.929 119.787 297.978 112.203L377.926 108.981L381.644 104.998L395.114 111.275C405.692 116.211 404.841 130.175 404.841 130.175C404.841 130.175 406.288 146.356 404.886 150.029Z" fill="black"/>
<path d="M404.886 149.385H277.546C277.546 149.178 277.546 149.069 277.546 149.069L278.6 130.381C278.6 130.381 288.929 119.143 297.978 111.558L377.926 108.336L381.644 104.354L395.114 110.631C405.692 115.567 404.841 129.531 404.841 129.531C404.841 129.531 406.288 145.712 404.886 149.385Z" fill="#E7C7CA"/>
<path opacity="0.1" d="M320.56 96.9821C320.56 96.9821 340.648 122.977 367.405 96.4473C394.163 69.9174 370.369 155.623 370.369 155.623L312.628 162.582L320.56 96.9821Z" fill="black"/>
<path d="M320.56 98.271C320.56 98.271 340.648 124.266 367.405 97.7361C394.163 71.2062 370.369 156.911 370.369 156.911L312.628 163.871L320.56 98.271Z" fill="#E7C7CA"/>
<path opacity="0.1" d="M375.673 102.833L377.799 135.756L380.077 146.71L381.815 155.088C381.815 155.088 386.257 219.528 384.988 222.75C383.719 225.972 385.622 228.549 385.889 230.263C386.155 231.977 385.622 236.282 385.832 238.215C386.041 240.148 385.832 241.005 380.971 240.316C376.111 239.626 369.334 238.428 369.334 238.428C369.334 238.428 352.203 239.717 346.283 237.571C340.363 235.425 329.151 235.419 329.151 235.419C329.151 235.419 312.229 235.85 306.734 235.206C301.239 234.561 298.27 242.082 294.678 239.929C291.087 237.777 298.904 216.95 301.442 210.931C303.98 204.913 298.06 189.666 298.06 189.666L305.674 146.768L307.368 137.044V106.474L307.787 106.326C309.332 105.714 310.711 104.738 311.81 103.478L313.714 134.241L373.357 136.394V101.77" fill="black"/>
<path d="M375.673 101.545L377.799 134.467L380.077 145.422L381.815 153.799C381.815 153.799 386.257 218.239 384.988 221.461C383.719 224.683 385.622 227.26 385.889 228.975C386.155 230.689 385.622 234.993 385.832 236.926C386.041 238.86 385.832 239.717 380.971 239.027C376.111 238.338 369.334 237.139 369.334 237.139C369.334 237.139 352.203 238.428 346.283 236.282C340.363 234.136 329.151 234.13 329.151 234.13C329.151 234.13 312.229 234.562 306.734 233.917C301.239 233.273 298.27 240.793 294.678 238.641C291.087 236.488 298.904 215.661 301.442 209.643C303.98 203.624 298.06 188.377 298.06 188.377L305.674 145.48L307.368 135.756V105.185L307.787 105.037C309.332 104.425 310.711 103.449 311.81 102.189L313.714 132.953L373.357 135.105V100.481" fill="#E7C7CA"/>
<path opacity="0.1" d="M382.532 32.8386C382.171 31.4918 381.669 30.0935 380.629 29.1913C379.635 28.4667 378.487 27.9898 377.278 27.7994C374.384 27.0265 371.442 26.4538 368.471 26.0853C368.047 24.6544 367.405 23.2998 366.568 22.0707C360.35 13.1522 351.149 4.74277 340.325 2.84179C334.659 1.84298 328.091 2.73869 324.462 7.27526C322.47 9.76909 321.613 13.0749 319.602 15.5236C315.725 20.2792 308.726 20.8657 303.84 24.5452C301.233 26.4784 299.342 29.2815 297.495 32.0009C295.497 34.9458 293.441 38.0131 292.806 41.5316C291.537 48.562 296.112 55.2637 296.956 62.3585C298.86 78.2301 282.109 92.3102 285.275 107.969C287.121 117.1 295.427 123.531 304.018 126.792C307.045 127.946 310.503 129.093 311.918 132.044C312.552 133.333 312.66 134.821 313.257 136.123C315.262 140.466 321.854 140.634 325.395 137.47C328.935 134.306 330.052 129.189 330.471 124.414C332.171 103.561 323.948 82.96 324.906 62.0557C325.192 55.7341 326.943 48.5619 332.52 45.7008C340.026 41.8344 349.055 48.2784 357.317 47.0476C361.226 56.708 362.056 67.3699 359.69 77.5342C358.376 83.0953 356.105 88.489 355.94 94.2241C355.692 102.956 360.331 110.933 364.341 118.653C365.201 120.097 365.777 121.697 366.035 123.364C366.098 125.055 365.788 126.74 365.128 128.294C362.862 134.486 358.954 140.234 358.51 146.826C358.38 147.596 358.55 148.387 358.986 149.03C359.433 149.46 360.01 149.723 360.623 149.778C367.475 150.97 373.402 144.803 376.745 138.61C380.474 131.771 382.646 124.17 383.103 116.366C383.795 103.246 379.163 90.3384 379.448 77.2055C379.778 62.2748 386.422 47.2409 382.532 32.8386Z" fill="black"/>
<path d="M383.167 32.1942C382.805 30.8474 382.304 29.4491 381.263 28.5469C380.269 27.8223 379.122 27.3455 377.913 27.155C375.019 26.3821 372.076 25.8094 369.106 25.4409C368.682 24.01 368.039 22.6554 367.202 21.4263C360.984 12.5078 351.784 4.0984 340.959 2.19742C335.293 1.1986 328.726 2.09431 325.096 6.63088C323.104 9.12471 322.248 12.4305 320.236 14.8792C316.359 19.6349 309.361 20.2213 304.475 23.9008C301.867 25.834 299.976 28.6371 298.13 31.3565C296.131 34.3014 294.075 37.3687 293.441 40.8872C292.172 47.9176 296.747 54.6193 297.591 61.7142C299.494 77.5857 282.743 91.6659 285.909 107.325C287.756 116.456 296.061 122.887 304.653 126.148C307.679 127.301 311.137 128.448 312.552 131.4C313.187 132.688 313.295 134.177 313.891 135.479C315.896 139.822 322.489 139.989 326.029 136.825C329.57 133.661 330.686 128.545 331.105 123.77C332.806 102.917 324.583 82.3156 325.541 61.4113C325.826 55.0897 327.577 47.9176 333.155 45.0564C340.661 41.19 349.69 47.634 357.951 46.4032C361.861 56.0637 362.691 66.7255 360.324 76.8898C359.011 82.4509 356.739 87.8446 356.574 93.5797C356.327 102.311 360.965 110.289 364.975 118.009C365.836 119.453 366.411 121.052 366.669 122.719C366.733 124.411 366.423 126.095 365.762 127.649C363.497 133.842 359.588 139.59 359.144 146.182C359.014 146.952 359.185 147.742 359.62 148.386C360.067 148.815 360.644 149.079 361.257 149.133C368.11 150.326 374.036 144.159 377.38 137.966C381.108 131.126 383.28 123.525 383.738 115.721C384.429 102.601 379.797 89.694 380.083 76.5611C380.413 61.6304 387.056 46.5965 383.167 32.1942Z" fill="#3E373A"/>
<path d="M369.15 317.515L394.321 318.333L390.711 299.375L371.428 301.238L369.15 317.515Z" fill="#C3C7D9"/>
<path d="M447.144 272.581C445.45 274.727 438.895 278.593 438.261 279.882C437.626 281.171 429.803 285.037 425.78 285.682C421.757 286.326 409.074 289.123 406.745 290.624C405.076 291.707 391.682 295.135 382.881 297.036C380.497 297.609 378.085 298.05 375.654 298.357C371.847 298.57 330.185 284.18 330.185 284.18L338.218 275.803L338.662 275.648C340.934 274.869 351.429 271.266 357.253 269.552C363.814 267.619 371.428 259.674 371.428 259.674C371.428 259.674 382.634 255.807 384.118 255.376C385.603 254.944 380.311 240.342 380.311 240.342C380.311 240.342 404.632 236.914 414.15 234.007C423.667 231.101 445.666 232.177 449.682 243.564C453.699 254.95 448.864 270.435 447.144 272.581Z" fill="#4B4B5B"/>
<path d="M336.315 308.88C336.315 308.88 331.454 314.035 326.588 313.61C321.721 313.185 304.703 314.899 304.703 314.899C301.619 316.148 298.732 317.848 296.131 319.944C292.153 323.128 290.04 320.589 289.647 320.048L289.577 319.944C287.457 326.717 282.597 321.555 282.597 321.555C282.597 321.555 284.71 300.935 284.063 298.357C283.416 295.779 288.244 291.352 288.244 291.352L293.955 289.877L308.422 286.113L329.151 293.414L336.315 308.88Z" fill="#E7C7CA"/>
<path opacity="0.1" d="M293.929 289.877L289.647 320.048L289.577 319.944C287.458 326.717 282.597 321.555 282.597 321.555C282.597 321.555 284.71 300.935 284.063 298.357C283.416 295.779 288.244 291.352 288.244 291.352L293.929 289.877Z" fill="black"/>
<path opacity="0.1" d="M323.865 204.056C323.865 204.056 335.071 207.922 344.804 204.056Z" fill="black"/>
<path opacity="0.1" d="M362.12 211.363C362.12 211.363 366.771 213.722 370.368 211.363Z" fill="black"/>
<path opacity="0.1" d="M362.12 216.956C362.12 216.956 369.943 218.02 371.428 215.874Z" fill="black"/>
<path opacity="0.1" d="M359.582 228.975C359.582 228.975 374.277 227.041 377.926 224.464Z" fill="black"/>
<path opacity="0.1" d="M314.741 224.464C314.741 224.464 322.99 229.187 329.126 228.975Z" fill="black"/>
<path opacity="0.1" d="M382.875 297.036C380.491 297.609 378.078 298.05 375.648 298.357C371.84 298.57 330.179 284.18 330.179 284.18L338.212 275.803L338.656 275.648C339.925 276.557 340.965 277.337 341.708 277.93C345.204 280.726 348.579 277.073 349.848 277.073C351.117 277.073 362.114 286.307 362.114 286.307C362.114 286.307 372.266 288.672 373.96 290.818C375.654 292.963 381.574 292.538 382.627 294.04C382.944 294.504 382.982 295.644 382.875 297.036Z" fill="black"/>
<path d="M304.703 241.218C304.703 241.218 294.437 241.817 288.517 239.285C282.597 236.752 262.927 230.908 257.217 235.013C251.506 239.117 237.757 242.745 244.102 259.074C250.447 275.404 253.41 275.829 253.41 275.829C255.373 277.324 257.087 279.13 258.486 281.177C260.389 284.187 278.156 291.056 282.597 291.056C287.039 291.056 294.862 291.056 305.858 298.789C316.854 306.522 326.797 307.385 326.797 307.385C326.797 307.385 340.756 313.185 345.103 314.473C349.449 315.762 369.309 321.343 373.966 319.629C378.624 317.915 381.58 307.166 381.58 307.166C381.58 307.166 383.693 297.5 382.634 295.999C381.574 294.497 375.654 294.922 373.966 292.777C372.279 290.631 362.12 288.266 362.12 288.266C362.12 288.266 351.149 279.025 349.88 279.025C348.611 279.025 345.236 282.672 341.74 279.882C334.775 274.643 327.459 269.906 319.843 265.705C311.81 261.407 304.703 241.218 304.703 241.218Z" fill="#4B4B5B"/>
<path opacity="0.1" d="M284.063 247.449C285.891 247.07 287.78 247.125 289.584 247.609C291.388 248.093 293.058 248.993 294.463 250.24C299.539 254.538 316.62 263.166 316.62 263.166" fill="black"/>
<path opacity="0.1" d="M410.977 247.179C410.977 247.179 388.344 250.659 384.118 255.382Z" fill="black"/>
<path d="M436.992 318.333H435.996C432.417 318.205 420.292 317.818 417.957 318.333C415.209 318.978 378.826 318.333 378.826 318.333L385.939 316.832C385.939 316.832 383.3 307.437 384.975 306.657C384.975 306.657 375.457 300.29 382.633 295.992C389.81 291.694 397.544 293.505 397.544 293.505L415.558 287.306L419.016 286.113C419.016 286.113 439.32 287.19 444.815 301.366C450.31 315.543 436.992 318.333 436.992 318.333Z" fill="#E7C7CA"/>
<path opacity="0.1" d="M436.992 318.333H435.996C441.903 313.384 455.266 298.318 415.558 287.338L419.016 286.146C419.016 286.146 439.32 287.222 444.815 301.399C450.31 315.575 436.992 318.333 436.992 318.333Z" fill="black"/>
<path d="M399.664 301.631C400.277 301.631 400.774 301.126 400.774 300.503C400.774 299.88 400.277 299.375 399.664 299.375C399.051 299.375 398.553 299.88 398.553 300.503C398.553 301.126 399.051 301.631 399.664 301.631Z" fill="#4B4B5B"/>
<path d="M393.211 303.493C393.824 303.493 394.321 302.988 394.321 302.365C394.321 301.742 393.824 301.237 393.211 301.237C392.598 301.237 392.101 301.742 392.101 302.365C392.101 302.988 392.598 303.493 393.211 303.493Z" fill="#4B4B5B"/>
<g opacity="0.1">
<path opacity="0.1" d="M361.771 64.0598C362.017 56.9719 360.776 49.912 358.129 43.3488C349.88 44.5989 340.845 38.1356 333.332 42.002C327.774 44.8631 326.029 52.0353 325.718 58.3568C325.642 60.0258 325.63 61.6948 325.661 63.3638C325.661 62.771 325.661 62.1717 325.718 61.5788C326.01 55.2573 327.755 48.0851 333.332 45.224C340.845 41.3576 349.868 47.8016 358.129 46.5708C360.37 52.13 361.604 58.0549 361.771 64.0598V64.0598Z" fill="black"/>
<path opacity="0.1" d="M297.851 62.8805C297.96 61.4764 297.932 60.0648 297.768 58.6661C297.096 52.9954 294.044 47.576 293.492 42.0471C292.781 48.7166 296.963 55.1219 297.768 61.8881C297.851 62.2361 297.851 62.5454 297.851 62.8805Z" fill="black"/>
<path opacity="0.1" d="M331.283 120.709C330.89 125.49 329.779 130.6 326.207 133.771C322.635 136.941 316.055 136.767 314.069 132.424C313.434 131.135 313.339 129.634 312.724 128.345C311.315 125.394 307.851 124.247 304.824 123.093C296.226 119.826 287.933 113.427 286.087 104.27C285.922 103.441 285.81 102.601 285.751 101.757C285.595 103.675 285.708 105.606 286.087 107.492C287.933 116.623 296.239 123.048 304.824 126.315C307.851 127.469 311.315 128.616 312.724 131.567C313.358 132.856 313.466 134.344 314.069 135.646C316.068 139.989 322.66 140.157 326.207 136.993C329.754 133.829 330.858 128.712 331.283 123.931C331.476 121.414 331.542 118.889 331.48 116.366C331.48 117.828 331.397 119.272 331.283 120.709Z" fill="black"/>
<path opacity="0.1" d="M380.292 73.5067C380.292 74.441 380.292 75.369 380.292 76.2969C380.648 64.3111 384.975 52.2608 384.55 40.5263C384.22 51.378 380.534 62.4745 380.292 73.5067Z" fill="black"/>
<path opacity="0.1" d="M366.676 121.991C366.832 121.227 366.881 120.444 366.822 119.665C366.566 117.997 365.991 116.397 365.128 114.954C361.46 107.866 357.279 100.61 356.784 92.742C356.784 93.0771 356.739 93.3864 356.733 93.7472C356.479 102.472 361.118 110.457 365.128 118.176C365.809 119.372 366.33 120.655 366.676 121.991V121.991Z" fill="black"/>
<path opacity="0.1" d="M383.941 112.667C383.467 120.474 381.28 128.074 377.539 134.911C374.188 141.104 368.268 147.271 361.409 146.079C360.795 146.025 360.217 145.759 359.772 145.325C359.644 145.177 359.542 145.007 359.474 144.822C359.398 145.325 359.335 145.834 359.297 146.35C359.165 147.117 359.336 147.906 359.772 148.547C360.217 148.981 360.795 149.247 361.409 149.301C368.268 150.493 374.188 144.326 377.539 138.133C381.28 131.296 383.467 123.696 383.941 115.889C384.017 114.381 384.023 112.879 383.979 111.378C383.966 111.81 383.966 112.235 383.941 112.667Z" fill="black"/>
</g>
<path opacity="0.1" d="M384.975 306.657C384.975 306.657 401.034 313.5 411.624 298.357" stroke="black" stroke-miterlimit="10"/>
<path opacity="0.1" d="M388.135 318.617C388.135 318.617 401.25 309.956 417.957 318.333" stroke="black" stroke-miterlimit="10"/>
<path opacity="0.1" d="M300.344 316.652C300.344 316.652 305.852 304.034 320.56 313.655" stroke="black" stroke-miterlimit="10"/>
<path opacity="0.1" d="M282.489 130.059L293.72 119.749C293.72 119.749 337.266 116.849 339.068 131.883C339.068 131.883 354.506 114.059 386.974 118.028L400.711 129.138L362.742 146.06L325.845 159.057L298.669 146.704L282.489 130.059Z" fill="black"/>
<path d="M282.489 130.704L293.72 120.393C293.72 120.393 337.266 117.493 339.068 132.527C339.068 132.527 354.506 114.703 386.974 118.673L400.711 129.782L362.742 146.704L325.845 159.702L298.669 147.348L282.489 130.704Z" fill="#D5D6DB"/>
<path opacity="0.1" d="M277.521 131.992L282.489 192.353L335.153 195.04L332.869 134.937L332.825 133.926L277.521 131.992Z" fill="black"/>
<path d="M277.521 130.704L282.489 191.064L335.153 193.752L332.869 133.648L332.825 132.637L277.521 130.704Z" fill="#2C59AC"/>
<path opacity="0.1" d="M403.122 130.704L348.795 138.978V199.609L401.885 191.818L403.122 130.704Z" fill="black"/>
<path d="M403.122 129.415L348.795 137.689V198.32L401.885 190.53L403.122 129.415Z" fill="#2C59AC"/>
<path opacity="0.3" d="M390.311 144.21L360.965 147.522L361.606 157.678L390.292 154.495L390.311 144.21Z" fill="white"/>
<path d="M285.345 223.388L288.333 231.552C288.333 231.552 292.775 235.419 297.635 233.485C302.495 231.552 306.734 230.592 308.847 228.71C310.96 226.829 313.923 217.375 313.923 217.375C313.923 217.375 316.886 207.065 319.843 204.487C322.8 201.91 330.629 166.397 319.843 169.87C309.056 173.344 300.808 205.564 300.808 205.564C300.808 205.564 298.904 207.922 296.157 208.141C293.409 208.36 287.908 207.709 286.848 210.074C285.789 212.439 282.172 218.664 285.345 223.388Z" fill="#BE6F72"/>
<path opacity="0.1" d="M348.795 138.971C346.014 139.608 343.124 139.574 340.358 138.874C337.591 138.174 335.025 136.825 332.863 134.937L335.153 195.034C335.153 195.034 340.547 200.962 348.795 199.609V138.971Z" fill="black"/>
<path d="M348.795 137.682C346.014 138.319 343.124 138.286 340.358 137.585C337.591 136.885 335.025 135.537 332.863 133.648L335.153 193.745C335.153 193.745 340.547 199.674 348.795 198.32V137.682Z" fill="#2C59AC"/>
<path opacity="0.1" d="M348.795 137.682C346.014 138.319 343.124 138.286 340.358 137.585C337.591 136.885 335.025 135.537 332.863 133.648L335.153 193.745C335.153 193.745 340.547 199.674 348.795 198.32V137.682Z" fill="black"/>
<path opacity="0.1" d="M350.064 130.91C350.064 130.91 372.164 124.047 377.925 125.014Z" fill="black"/>
<path opacity="0.1" d="M325.344 127.913C325.344 127.913 303.923 122.758 300.344 124.221Z" fill="black"/>
<path opacity="0.1" d="M363.998 131.767C363.998 131.767 378.776 126.264 384.118 128.88Z" fill="black"/>
<path opacity="0.1" d="M356.555 269.817C358.845 268.07 361.283 266.532 363.84 265.222C367.647 263.36 374.626 258.527 374.626 258.527" fill="black"/>
<path opacity="0.1" d="M300.344 204.056C300.344 204.056 291.074 211.756 288.289 212.433C285.503 213.109 283.784 219.115 283.784 219.115" fill="black"/>
<path d="M397.671 222.241L394.715 230.424C394.715 230.424 390.273 234.291 385.406 232.358C380.54 230.424 376.314 229.464 374.195 227.583C372.075 225.701 369.119 216.248 369.119 216.248C369.119 216.248 366.162 205.937 363.199 203.36C360.235 200.782 352.412 165.269 363.199 168.742C373.985 172.216 382.234 204.436 382.234 204.436C382.234 204.436 384.137 206.794 386.885 207.013C389.632 207.232 395.133 206.582 396.193 208.947C397.253 211.312 400.844 217.536 397.671 222.241Z" fill="#BE6F72"/>
<path opacity="0.1" d="M392.488 207.187C392.488 207.187 398.547 211.144 398.522 215.874Z" fill="black"/>
<path d="M341.073 92.4971C356.727 92.4971 369.417 79.6095 369.417 63.7118C369.417 47.8141 356.727 34.9265 341.073 34.9265C325.42 34.9265 312.73 47.8141 312.73 63.7118C312.73 79.6095 325.42 92.4971 341.073 92.4971Z" fill="#BE6F72"/>
<path d="M323.275 55.9854C326.714 55.4377 329.728 53.4078 333.015 52.2415C340.369 49.6188 348.503 51.4166 355.946 53.7816C358.802 54.6902 361.701 55.7148 364.696 55.7148C367.691 55.7148 370.87 54.4711 372.399 51.8484C373.808 49.4383 373.535 46.3066 372.348 43.7741C371.162 41.2416 369.176 39.2053 367.171 37.285C360.572 30.957 352.387 25.0414 343.332 25.6858C339.69 25.95 336.207 27.271 332.856 28.7338C328.638 30.58 324.532 32.6802 320.56 35.0231C317.508 36.821 311.854 39.2246 310.097 42.511C306.099 49.9152 317.057 56.9778 323.275 55.9854Z" fill="#3E373A"/>
<path opacity="0.1" d="M372.399 49.1419C370.87 51.7646 367.691 53.0083 364.696 53.0083C361.701 53.0083 358.802 52.0224 355.94 51.1138C348.497 48.7488 340.369 46.9445 333.009 49.5737C329.728 50.74 326.708 52.7957 323.269 53.3112C318.257 54.1102 310.186 49.6768 309.31 44.0383C308.327 50.5531 317.686 56.1336 323.269 55.2444C326.708 54.6966 329.728 52.6668 333.009 51.5069C340.369 48.8777 348.497 50.682 355.94 53.047C358.802 53.9556 361.695 54.9802 364.696 54.9415C367.697 54.9028 370.87 53.7043 372.399 51.0751C373.192 49.6448 373.504 47.9911 373.287 46.3646C373.188 47.3438 372.886 48.2905 372.399 49.1419Z" fill="black"/>
<path d="M602.414 398.374C602.414 398.374 606.177 403.368 600.676 410.914C595.175 418.46 590.644 424.827 592.472 429.531C592.472 429.531 600.771 415.522 607.522 415.322C614.273 415.122 609.832 406.797 602.414 398.374Z" fill="#2C59AC"/>
<path opacity="0.1" d="M602.414 398.374C602.742 398.857 603 399.384 603.182 399.94C609.768 407.802 613.283 415.142 606.945 415.322C601.044 415.496 593.969 426.212 592.275 428.912C592.329 429.131 592.395 429.346 592.472 429.557C592.472 429.557 600.771 415.548 607.522 415.348C614.273 415.148 609.832 406.797 602.414 398.374Z" fill="black"/>
<path d="M609.394 404.741C609.394 406.5 609.197 407.924 608.962 407.924C608.728 407.924 608.525 406.5 608.525 404.741C608.525 402.982 608.766 403.813 609.007 403.813C609.248 403.813 609.394 402.982 609.394 404.741Z" fill="#FFD037"/>
<path d="M611.799 406.842C610.282 407.679 608.956 408.189 608.842 407.976C608.728 407.763 609.863 406.906 611.38 406.043C612.896 405.179 612.3 405.811 612.414 406.043C612.528 406.275 613.322 405.998 611.799 406.842Z" fill="#FFD037"/>
<path d="M582.529 398.374C582.529 398.374 578.766 403.368 584.267 410.914C589.769 418.46 594.299 424.827 592.465 429.531C592.465 429.531 584.172 415.522 577.415 415.322C570.657 415.122 575.13 406.797 582.529 398.374Z" fill="#2C59AC"/>
<path opacity="0.1" d="M582.529 398.374C582.201 398.857 581.943 399.384 581.761 399.94C575.175 407.802 571.66 415.142 577.998 415.322C583.893 415.496 590.974 426.212 592.668 428.912C592.615 429.132 592.547 429.347 592.465 429.557C592.465 429.557 584.172 415.548 577.415 415.348C570.657 415.148 575.13 406.797 582.529 398.374Z" fill="black"/>
<path d="M575.537 404.741C575.537 406.5 575.727 407.924 575.968 407.924C576.209 407.924 576.406 406.5 576.406 404.741C576.406 402.982 576.158 403.813 575.924 403.813C575.689 403.813 575.537 402.982 575.537 404.741Z" fill="#FFD037"/>
<path d="M573.138 406.842C574.655 407.679 575.981 408.189 576.095 407.976C576.209 407.763 575.073 406.906 573.557 406.043C572.041 405.179 572.637 405.811 572.523 406.043C572.409 406.275 571.615 405.998 573.138 406.842Z" fill="#FFD037"/>
<path opacity="0.1" d="M592.472 467.757C614.198 467.757 631.811 465.013 631.811 461.629C631.811 458.244 614.198 455.5 592.472 455.5C570.745 455.5 553.132 458.244 553.132 461.629C553.132 465.013 570.745 467.757 592.472 467.757Z" fill="#2C59AC"/>
<path d="M612.719 422.797L612.528 424.357L612.262 426.56L612.154 427.482L611.888 429.686L611.773 430.607L611.513 432.805L608.499 457.872C608.233 460.108 604.635 461.854 600.289 461.854H584.648C580.302 461.854 576.711 460.108 576.438 457.872L573.424 432.805L573.157 430.607L573.049 429.686L572.783 427.482L572.669 426.56L572.409 424.357L572.218 422.797C572.072 421.508 574.014 420.464 576.476 420.464H608.468C610.923 420.464 612.871 421.528 612.719 422.797Z" fill="#65617D"/>
<path d="M612.529 424.357L612.268 426.56H572.675L572.409 424.357H612.529Z" fill="#9D9CB5"/>
<path d="M612.154 427.482L611.894 429.686H573.049L572.783 427.482H612.154Z" fill="#9D9CB5"/>
<path d="M611.78 430.607L611.513 432.811H573.424L573.164 430.607H611.78Z" fill="#9D9CB5"/>
</g>
<defs>
<linearGradient id="paint0_linear" x1="346.847" y1="323.437" x2="346.847" y2="-5.85003e-06" gradientUnits="userSpaceOnUse">
<stop stop-color="#808080" stop-opacity="0.25"/>
<stop offset="0.54" stop-color="#808080" stop-opacity="0.12"/>
<stop offset="1" stop-color="#808080" stop-opacity="0.1"/>
</linearGradient>
<clipPath id="clip0">
<rect width="649" height="524" fill="white"/>
</clipPath>
</defs>
</svg>
