<svg width="157" height="129" viewBox="0 0 157 129" fill="none" xmlns="http://www.w3.org/2000/svg">
<g clip-path="url(#clip0)">
<path d="M156.924 129H105.204V128.572H157L156.924 129Z" fill="#3F3D56"/>
<path d="M1.36648 2.77279C2.12157 2.77279 2.73369 2.15223 2.73369 1.38674C2.73369 0.621254 2.12157 0.000701904 1.36648 0.000701904C0.61139 0.000701904 -0.000732422 0.621254 -0.000732422 1.38674C-0.000732422 2.15223 0.61139 2.77279 1.36648 2.77279Z" fill="#E6E6E6"/>
<path d="M8.28799 2.77221C9.04308 2.77221 9.6552 2.15166 9.6552 1.38616C9.6552 0.620675 9.04308 0.00012207 8.28799 0.00012207C7.5329 0.00012207 6.92078 0.620675 6.92078 1.38616C6.92078 2.15166 7.5329 2.77221 8.28799 2.77221Z" fill="#E6E6E6"/>
<path d="M15.2086 2.77221C15.9637 2.77221 16.5759 2.15166 16.5759 1.38616C16.5759 0.620675 15.9637 0.00012207 15.2086 0.00012207C14.4536 0.00012207 13.8414 0.620675 13.8414 1.38616C13.8414 2.15166 14.4536 2.77221 15.2086 2.77221Z" fill="#E6E6E6"/>
<path d="M22.1295 2.77221C22.8846 2.77221 23.4968 2.15166 23.4968 1.38616C23.4968 0.620675 22.8846 0.00012207 22.1295 0.00012207C21.3745 0.00012207 20.7623 0.620675 20.7623 1.38616C20.7623 2.15166 21.3745 2.77221 22.1295 2.77221Z" fill="#E6E6E6"/>
<path d="M29.0503 2.77221C29.8054 2.77221 30.4175 2.15166 30.4175 1.38616C30.4175 0.620675 29.8054 0.00012207 29.0503 0.00012207C28.2952 0.00012207 27.6831 0.620675 27.6831 1.38616C27.6831 2.15166 28.2952 2.77221 29.0503 2.77221Z" fill="#E6E6E6"/>
<path d="M35.9711 2.77221C36.7262 2.77221 37.3383 2.15166 37.3383 1.38616C37.3383 0.620675 36.7262 0.00012207 35.9711 0.00012207C35.216 0.00012207 34.6039 0.620675 34.6039 1.38616C34.6039 2.15166 35.216 2.77221 35.9711 2.77221Z" fill="#E6E6E6"/>
<path d="M42.8919 2.77221C43.647 2.77221 44.2591 2.15166 44.2591 1.38616C44.2591 0.620675 43.647 0.00012207 42.8919 0.00012207C42.1368 0.00012207 41.5247 0.620675 41.5247 1.38616C41.5247 2.15166 42.1368 2.77221 42.8919 2.77221Z" fill="#E6E6E6"/>
<path d="M49.8128 2.77221C50.5679 2.77221 51.18 2.15166 51.18 1.38616C51.18 0.620675 50.5679 0.00012207 49.8128 0.00012207C49.0577 0.00012207 48.4456 0.620675 48.4456 1.38616C48.4456 2.15166 49.0577 2.77221 49.8128 2.77221Z" fill="#E6E6E6"/>
<path d="M56.7337 2.77221C57.4888 2.77221 58.1009 2.15166 58.1009 1.38616C58.1009 0.620675 57.4888 0.00012207 56.7337 0.00012207C55.9786 0.00012207 55.3665 0.620675 55.3665 1.38616C55.3665 2.15166 55.9786 2.77221 56.7337 2.77221Z" fill="#E6E6E6"/>
<path d="M63.6545 2.77221C64.4095 2.77221 65.0217 2.15166 65.0217 1.38616C65.0217 0.620675 64.4095 0.00012207 63.6545 0.00012207C62.8994 0.00012207 62.2872 0.620675 62.2872 1.38616C62.2872 2.15166 62.8994 2.77221 63.6545 2.77221Z" fill="#E6E6E6"/>
<path d="M1.36709 9.87642C2.12218 9.87642 2.7343 9.25587 2.7343 8.49038C2.7343 7.72489 2.12218 7.10434 1.36709 7.10434C0.612 7.10434 -0.00012207 7.72489 -0.00012207 8.49038C-0.00012207 9.25587 0.612 9.87642 1.36709 9.87642Z" fill="#E6E6E6"/>
<path d="M8.28799 9.87642C9.04308 9.87642 9.6552 9.25587 9.6552 8.49038C9.6552 7.72489 9.04308 7.10434 8.28799 7.10434C7.5329 7.10434 6.92078 7.72489 6.92078 8.49038C6.92078 9.25587 7.5329 9.87642 8.28799 9.87642Z" fill="#E6E6E6"/>
<path d="M15.2086 9.87642C15.9637 9.87642 16.5759 9.25587 16.5759 8.49038C16.5759 7.72489 15.9637 7.10434 15.2086 7.10434C14.4536 7.10434 13.8414 7.72489 13.8414 8.49038C13.8414 9.25587 14.4536 9.87642 15.2086 9.87642Z" fill="#E6E6E6"/>
<path d="M22.1295 9.87642C22.8846 9.87642 23.4968 9.25587 23.4968 8.49038C23.4968 7.72489 22.8846 7.10434 22.1295 7.10434C21.3745 7.10434 20.7623 7.72489 20.7623 8.49038C20.7623 9.25587 21.3745 9.87642 22.1295 9.87642Z" fill="#2C59AC"/>
<path d="M29.0503 9.87642C29.8054 9.87642 30.4175 9.25587 30.4175 8.49038C30.4175 7.72489 29.8054 7.10434 29.0503 7.10434C28.2952 7.10434 27.6831 7.72489 27.6831 8.49038C27.6831 9.25587 28.2952 9.87642 29.0503 9.87642Z" fill="#E6E6E6"/>
<path d="M35.9711 9.87642C36.7262 9.87642 37.3383 9.25587 37.3383 8.49038C37.3383 7.72489 36.7262 7.10434 35.9711 7.10434C35.216 7.10434 34.6039 7.72489 34.6039 8.49038C34.6039 9.25587 35.216 9.87642 35.9711 9.87642Z" fill="#E6E6E6"/>
<path d="M42.8919 9.87642C43.647 9.87642 44.2591 9.25587 44.2591 8.49038C44.2591 7.72489 43.647 7.10434 42.8919 7.10434C42.1368 7.10434 41.5247 7.72489 41.5247 8.49038C41.5247 9.25587 42.1368 9.87642 42.8919 9.87642Z" fill="#E6E6E6"/>
<path d="M49.8128 9.87642C50.5679 9.87642 51.18 9.25587 51.18 8.49038C51.18 7.72489 50.5679 7.10434 49.8128 7.10434C49.0577 7.10434 48.4456 7.72489 48.4456 8.49038C48.4456 9.25587 49.0577 9.87642 49.8128 9.87642Z" fill="#E6E6E6"/>
<path d="M56.7337 9.87642C57.4888 9.87642 58.1009 9.25587 58.1009 8.49038C58.1009 7.72489 57.4888 7.10434 56.7337 7.10434C55.9786 7.10434 55.3665 7.72489 55.3665 8.49038C55.3665 9.25587 55.9786 9.87642 56.7337 9.87642Z" fill="#E6E6E6"/>
<path d="M63.6545 9.87642C64.4095 9.87642 65.0217 9.25587 65.0217 8.49038C65.0217 7.72489 64.4095 7.10434 63.6545 7.10434C62.8994 7.10434 62.2872 7.72489 62.2872 8.49038C62.2872 9.25587 62.8994 9.87642 63.6545 9.87642Z" fill="#E6E6E6"/>
<path d="M1.36709 16.9806C2.12218 16.9806 2.7343 16.3601 2.7343 15.5946C2.7343 14.8291 2.12218 14.2085 1.36709 14.2085C0.612 14.2085 -0.00012207 14.8291 -0.00012207 15.5946C-0.00012207 16.3601 0.612 16.9806 1.36709 16.9806Z" fill="#E6E6E6"/>
<path d="M8.28799 16.9806C9.04308 16.9806 9.6552 16.3601 9.6552 15.5946C9.6552 14.8291 9.04308 14.2085 8.28799 14.2085C7.5329 14.2085 6.92078 14.8291 6.92078 15.5946C6.92078 16.3601 7.5329 16.9806 8.28799 16.9806Z" fill="#E6E6E6"/>
<path d="M15.2086 16.9806C15.9637 16.9806 16.5759 16.3601 16.5759 15.5946C16.5759 14.8291 15.9637 14.2085 15.2086 14.2085C14.4536 14.2085 13.8414 14.8291 13.8414 15.5946C13.8414 16.3601 14.4536 16.9806 15.2086 16.9806Z" fill="#E6E6E6"/>
<path d="M22.1295 16.9806C22.8846 16.9806 23.4968 16.3601 23.4968 15.5946C23.4968 14.8291 22.8846 14.2085 22.1295 14.2085C21.3745 14.2085 20.7623 14.8291 20.7623 15.5946C20.7623 16.3601 21.3745 16.9806 22.1295 16.9806Z" fill="#E6E6E6"/>
<path d="M29.0503 16.9806C29.8054 16.9806 30.4175 16.3601 30.4175 15.5946C30.4175 14.8291 29.8054 14.2085 29.0503 14.2085C28.2952 14.2085 27.6831 14.8291 27.6831 15.5946C27.6831 16.3601 28.2952 16.9806 29.0503 16.9806Z" fill="#E6E6E6"/>
<path d="M35.9711 16.9806C36.7262 16.9806 37.3383 16.3601 37.3383 15.5946C37.3383 14.8291 36.7262 14.2085 35.9711 14.2085C35.216 14.2085 34.6039 14.8291 34.6039 15.5946C34.6039 16.3601 35.216 16.9806 35.9711 16.9806Z" fill="#E6E6E6"/>
<path d="M42.8919 16.9806C43.647 16.9806 44.2591 16.3601 44.2591 15.5946C44.2591 14.8291 43.647 14.2085 42.8919 14.2085C42.1368 14.2085 41.5247 14.8291 41.5247 15.5946C41.5247 16.3601 42.1368 16.9806 42.8919 16.9806Z" fill="#E6E6E6"/>
<path d="M49.8128 16.9806C50.5679 16.9806 51.18 16.3601 51.18 15.5946C51.18 14.8291 50.5679 14.2085 49.8128 14.2085C49.0577 14.2085 48.4456 14.8291 48.4456 15.5946C48.4456 16.3601 49.0577 16.9806 49.8128 16.9806Z" fill="#E6E6E6"/>
<path d="M56.7337 16.9806C57.4888 16.9806 58.1009 16.3601 58.1009 15.5946C58.1009 14.8291 57.4888 14.2085 56.7337 14.2085C55.9786 14.2085 55.3665 14.8291 55.3665 15.5946C55.3665 16.3601 55.9786 16.9806 56.7337 16.9806Z" fill="#E6E6E6"/>
<path d="M63.6545 16.9806C64.4095 16.9806 65.0217 16.3601 65.0217 15.5946C65.0217 14.8291 64.4095 14.2085 63.6545 14.2085C62.8994 14.2085 62.2872 14.8291 62.2872 15.5946C62.2872 16.3601 62.8994 16.9806 63.6545 16.9806Z" fill="#E6E6E6"/>
<path d="M1.36709 24.0848C2.12218 24.0848 2.7343 23.4643 2.7343 22.6988C2.7343 21.9333 2.12218 21.3127 1.36709 21.3127C0.612 21.3127 -0.00012207 21.9333 -0.00012207 22.6988C-0.00012207 23.4643 0.612 24.0848 1.36709 24.0848Z" fill="#E6E6E6"/>
<path d="M8.28799 24.0848C9.04308 24.0848 9.6552 23.4643 9.6552 22.6988C9.6552 21.9333 9.04308 21.3127 8.28799 21.3127C7.5329 21.3127 6.92078 21.9333 6.92078 22.6988C6.92078 23.4643 7.5329 24.0848 8.28799 24.0848Z" fill="#E6E6E6"/>
<path d="M15.2086 24.0848C15.9637 24.0848 16.5759 23.4643 16.5759 22.6988C16.5759 21.9333 15.9637 21.3127 15.2086 21.3127C14.4536 21.3127 13.8414 21.9333 13.8414 22.6988C13.8414 23.4643 14.4536 24.0848 15.2086 24.0848Z" fill="#E6E6E6"/>
<path d="M22.1295 24.0848C22.8846 24.0848 23.4968 23.4643 23.4968 22.6988C23.4968 21.9333 22.8846 21.3127 22.1295 21.3127C21.3745 21.3127 20.7623 21.9333 20.7623 22.6988C20.7623 23.4643 21.3745 24.0848 22.1295 24.0848Z" fill="#E6E6E6"/>
<path d="M29.0503 24.0848C29.8054 24.0848 30.4175 23.4643 30.4175 22.6988C30.4175 21.9333 29.8054 21.3127 29.0503 21.3127C28.2952 21.3127 27.6831 21.9333 27.6831 22.6988C27.6831 23.4643 28.2952 24.0848 29.0503 24.0848Z" fill="#E6E6E6"/>
<path d="M35.9711 24.0848C36.7262 24.0848 37.3383 23.4643 37.3383 22.6988C37.3383 21.9333 36.7262 21.3127 35.9711 21.3127C35.216 21.3127 34.6039 21.9333 34.6039 22.6988C34.6039 23.4643 35.216 24.0848 35.9711 24.0848Z" fill="#E6E6E6"/>
<path d="M42.8919 24.0848C43.647 24.0848 44.2591 23.4643 44.2591 22.6988C44.2591 21.9333 43.647 21.3127 42.8919 21.3127C42.1368 21.3127 41.5247 21.9333 41.5247 22.6988C41.5247 23.4643 42.1368 24.0848 42.8919 24.0848Z" fill="#E6E6E6"/>
<path d="M49.8128 24.0848C50.5679 24.0848 51.18 23.4643 51.18 22.6988C51.18 21.9333 50.5679 21.3127 49.8128 21.3127C49.0577 21.3127 48.4456 21.9333 48.4456 22.6988C48.4456 23.4643 49.0577 24.0848 49.8128 24.0848Z" fill="#E6E6E6"/>
<path d="M56.7337 24.0848C57.4888 24.0848 58.1009 23.4643 58.1009 22.6988C58.1009 21.9333 57.4888 21.3127 56.7337 21.3127C55.9786 21.3127 55.3665 21.9333 55.3665 22.6988C55.3665 23.4643 55.9786 24.0848 56.7337 24.0848Z" fill="#E6E6E6"/>
<path d="M63.6545 24.0848C64.4095 24.0848 65.0217 23.4643 65.0217 22.6988C65.0217 21.9333 64.4095 21.3127 63.6545 21.3127C62.8994 21.3127 62.2872 21.9333 62.2872 22.6988C62.2872 23.4643 62.8994 24.0848 63.6545 24.0848Z" fill="#E6E6E6"/>
<path d="M1.36709 31.189C2.12218 31.189 2.7343 30.5685 2.7343 29.803C2.7343 29.0375 2.12218 28.4169 1.36709 28.4169C0.612 28.4169 -0.00012207 29.0375 -0.00012207 29.803C-0.00012207 30.5685 0.612 31.189 1.36709 31.189Z" fill="#E6E6E6"/>
<path d="M8.28799 31.189C9.04308 31.189 9.6552 30.5685 9.6552 29.803C9.6552 29.0375 9.04308 28.4169 8.28799 28.4169C7.5329 28.4169 6.92078 29.0375 6.92078 29.803C6.92078 30.5685 7.5329 31.189 8.28799 31.189Z" fill="#2C59AC"/>
<path d="M15.2086 31.189C15.9637 31.189 16.5759 30.5685 16.5759 29.803C16.5759 29.0375 15.9637 28.4169 15.2086 28.4169C14.4536 28.4169 13.8414 29.0375 13.8414 29.803C13.8414 30.5685 14.4536 31.189 15.2086 31.189Z" fill="#E6E6E6"/>
<path d="M22.1295 31.189C22.8846 31.189 23.4968 30.5685 23.4968 29.803C23.4968 29.0375 22.8846 28.4169 22.1295 28.4169C21.3745 28.4169 20.7623 29.0375 20.7623 29.803C20.7623 30.5685 21.3745 31.189 22.1295 31.189Z" fill="#E6E6E6"/>
<path d="M29.0503 31.189C29.8054 31.189 30.4175 30.5685 30.4175 29.803C30.4175 29.0375 29.8054 28.4169 29.0503 28.4169C28.2952 28.4169 27.6831 29.0375 27.6831 29.803C27.6831 30.5685 28.2952 31.189 29.0503 31.189Z" fill="#E6E6E6"/>
<path d="M35.9711 31.189C36.7262 31.189 37.3383 30.5685 37.3383 29.803C37.3383 29.0375 36.7262 28.4169 35.9711 28.4169C35.216 28.4169 34.6039 29.0375 34.6039 29.803C34.6039 30.5685 35.216 31.189 35.9711 31.189Z" fill="#E6E6E6"/>
<path d="M42.8919 31.189C43.647 31.189 44.2591 30.5685 44.2591 29.803C44.2591 29.0375 43.647 28.4169 42.8919 28.4169C42.1368 28.4169 41.5247 29.0375 41.5247 29.803C41.5247 30.5685 42.1368 31.189 42.8919 31.189Z" fill="#E6E6E6"/>
<path d="M49.8128 31.189C50.5679 31.189 51.18 30.5685 51.18 29.803C51.18 29.0375 50.5679 28.4169 49.8128 28.4169C49.0577 28.4169 48.4456 29.0375 48.4456 29.803C48.4456 30.5685 49.0577 31.189 49.8128 31.189Z" fill="#E6E6E6"/>
<path d="M56.7337 31.189C57.4888 31.189 58.1009 30.5685 58.1009 29.803C58.1009 29.0375 57.4888 28.4169 56.7337 28.4169C55.9786 28.4169 55.3665 29.0375 55.3665 29.803C55.3665 30.5685 55.9786 31.189 56.7337 31.189Z" fill="#E6E6E6"/>
<path d="M63.6545 31.189C64.4095 31.189 65.0217 30.5685 65.0217 29.803C65.0217 29.0375 64.4095 28.4169 63.6545 28.4169C62.8994 28.4169 62.2872 29.0375 62.2872 29.803C62.2872 30.5685 62.8994 31.189 63.6545 31.189Z" fill="#E6E6E6"/>
<path d="M1.36709 38.2932C2.12218 38.2932 2.7343 37.6726 2.7343 36.9072C2.7343 36.1417 2.12218 35.5211 1.36709 35.5211C0.612 35.5211 -0.00012207 36.1417 -0.00012207 36.9072C-0.00012207 37.6726 0.612 38.2932 1.36709 38.2932Z" fill="#E6E6E6"/>
<path d="M8.28799 38.2932C9.04308 38.2932 9.6552 37.6726 9.6552 36.9072C9.6552 36.1417 9.04308 35.5211 8.28799 35.5211C7.5329 35.5211 6.92078 36.1417 6.92078 36.9072C6.92078 37.6726 7.5329 38.2932 8.28799 38.2932Z" fill="#E6E6E6"/>
<path d="M15.2086 38.2932C15.9637 38.2932 16.5759 37.6726 16.5759 36.9072C16.5759 36.1417 15.9637 35.5211 15.2086 35.5211C14.4536 35.5211 13.8414 36.1417 13.8414 36.9072C13.8414 37.6726 14.4536 38.2932 15.2086 38.2932Z" fill="#E6E6E6"/>
<path d="M22.1295 38.2932C22.8846 38.2932 23.4968 37.6726 23.4968 36.9072C23.4968 36.1417 22.8846 35.5211 22.1295 35.5211C21.3745 35.5211 20.7623 36.1417 20.7623 36.9072C20.7623 37.6726 21.3745 38.2932 22.1295 38.2932Z" fill="#E6E6E6"/>
<path d="M29.0503 38.2932C29.8054 38.2932 30.4175 37.6726 30.4175 36.9072C30.4175 36.1417 29.8054 35.5211 29.0503 35.5211C28.2952 35.5211 27.6831 36.1417 27.6831 36.9072C27.6831 37.6726 28.2952 38.2932 29.0503 38.2932Z" fill="#E6E6E6"/>
<path d="M35.9711 38.2932C36.7262 38.2932 37.3383 37.6726 37.3383 36.9072C37.3383 36.1417 36.7262 35.5211 35.9711 35.5211C35.216 35.5211 34.6039 36.1417 34.6039 36.9072C34.6039 37.6726 35.216 38.2932 35.9711 38.2932Z" fill="#E6E6E6"/>
<path d="M42.8919 38.2932C43.647 38.2932 44.2591 37.6726 44.2591 36.9072C44.2591 36.1417 43.647 35.5211 42.8919 35.5211C42.1368 35.5211 41.5247 36.1417 41.5247 36.9072C41.5247 37.6726 42.1368 38.2932 42.8919 38.2932Z" fill="#E6E6E6"/>
<path d="M49.8128 38.2932C50.5679 38.2932 51.18 37.6726 51.18 36.9072C51.18 36.1417 50.5679 35.5211 49.8128 35.5211C49.0577 35.5211 48.4456 36.1417 48.4456 36.9072C48.4456 37.6726 49.0577 38.2932 49.8128 38.2932Z" fill="#E6E6E6"/>
<path d="M56.7337 38.2932C57.4888 38.2932 58.1009 37.6726 58.1009 36.9072C58.1009 36.1417 57.4888 35.5211 56.7337 35.5211C55.9786 35.5211 55.3665 36.1417 55.3665 36.9072C55.3665 37.6726 55.9786 38.2932 56.7337 38.2932Z" fill="#E6E6E6"/>
<path d="M63.6545 38.2932C64.4095 38.2932 65.0217 37.6726 65.0217 36.9072C65.0217 36.1417 64.4095 35.5211 63.6545 35.5211C62.8994 35.5211 62.2872 36.1417 62.2872 36.9072C62.2872 37.6726 62.8994 38.2932 63.6545 38.2932Z" fill="#E6E6E6"/>
<path d="M1.36709 45.3974C2.12218 45.3974 2.7343 44.7768 2.7343 44.0113C2.7343 43.2459 2.12218 42.6253 1.36709 42.6253C0.612 42.6253 -0.00012207 43.2459 -0.00012207 44.0113C-0.00012207 44.7768 0.612 45.3974 1.36709 45.3974Z" fill="#E6E6E6"/>
<path d="M8.28799 45.3974C9.04308 45.3974 9.6552 44.7768 9.6552 44.0113C9.6552 43.2459 9.04308 42.6253 8.28799 42.6253C7.5329 42.6253 6.92078 43.2459 6.92078 44.0113C6.92078 44.7768 7.5329 45.3974 8.28799 45.3974Z" fill="#E6E6E6"/>
<path d="M15.2086 45.3974C15.9637 45.3974 16.5759 44.7768 16.5759 44.0113C16.5759 43.2459 15.9637 42.6253 15.2086 42.6253C14.4536 42.6253 13.8414 43.2459 13.8414 44.0113C13.8414 44.7768 14.4536 45.3974 15.2086 45.3974Z" fill="#2C59AC"/>
<path d="M22.1295 45.3974C22.8846 45.3974 23.4968 44.7768 23.4968 44.0113C23.4968 43.2459 22.8846 42.6253 22.1295 42.6253C21.3745 42.6253 20.7623 43.2459 20.7623 44.0113C20.7623 44.7768 21.3745 45.3974 22.1295 45.3974Z" fill="#E6E6E6"/>
<path d="M29.0503 45.3974C29.8054 45.3974 30.4175 44.7768 30.4175 44.0113C30.4175 43.2459 29.8054 42.6253 29.0503 42.6253C28.2952 42.6253 27.6831 43.2459 27.6831 44.0113C27.6831 44.7768 28.2952 45.3974 29.0503 45.3974Z" fill="#E6E6E6"/>
<path d="M35.9711 45.3974C36.7262 45.3974 37.3383 44.7768 37.3383 44.0113C37.3383 43.2459 36.7262 42.6253 35.9711 42.6253C35.216 42.6253 34.6039 43.2459 34.6039 44.0113C34.6039 44.7768 35.216 45.3974 35.9711 45.3974Z" fill="#E6E6E6"/>
<path d="M42.8919 45.3974C43.647 45.3974 44.2591 44.7768 44.2591 44.0113C44.2591 43.2459 43.647 42.6253 42.8919 42.6253C42.1368 42.6253 41.5247 43.2459 41.5247 44.0113C41.5247 44.7768 42.1368 45.3974 42.8919 45.3974Z" fill="#E6E6E6"/>
<path d="M49.8128 45.3974C50.5679 45.3974 51.18 44.7768 51.18 44.0113C51.18 43.2459 50.5679 42.6253 49.8128 42.6253C49.0577 42.6253 48.4456 43.2459 48.4456 44.0113C48.4456 44.7768 49.0577 45.3974 49.8128 45.3974Z" fill="#E6E6E6"/>
<path d="M56.7337 45.3974C57.4888 45.3974 58.1009 44.7768 58.1009 44.0113C58.1009 43.2459 57.4888 42.6253 56.7337 42.6253C55.9786 42.6253 55.3665 43.2459 55.3665 44.0113C55.3665 44.7768 55.9786 45.3974 56.7337 45.3974Z" fill="#E6E6E6"/>
<path d="M63.6545 45.3974C64.4095 45.3974 65.0217 44.7768 65.0217 44.0113C65.0217 43.2459 64.4095 42.6253 63.6545 42.6253C62.8994 42.6253 62.2872 43.2459 62.2872 44.0113C62.2872 44.7768 62.8994 45.3974 63.6545 45.3974Z" fill="#E6E6E6"/>
<path d="M1.36709 52.5016C2.12218 52.5016 2.7343 51.881 2.7343 51.1155C2.7343 50.35 2.12218 49.7295 1.36709 49.7295C0.612 49.7295 -0.00012207 50.35 -0.00012207 51.1155C-0.00012207 51.881 0.612 52.5016 1.36709 52.5016Z" fill="#E6E6E6"/>
<path d="M8.28799 52.5016C9.04308 52.5016 9.6552 51.881 9.6552 51.1155C9.6552 50.35 9.04308 49.7295 8.28799 49.7295C7.5329 49.7295 6.92078 50.35 6.92078 51.1155C6.92078 51.881 7.5329 52.5016 8.28799 52.5016Z" fill="#E6E6E6"/>
<path d="M15.2086 52.5016C15.9637 52.5016 16.5759 51.881 16.5759 51.1155C16.5759 50.35 15.9637 49.7295 15.2086 49.7295C14.4536 49.7295 13.8414 50.35 13.8414 51.1155C13.8414 51.881 14.4536 52.5016 15.2086 52.5016Z" fill="#E6E6E6"/>
<path d="M22.1295 52.5016C22.8846 52.5016 23.4968 51.881 23.4968 51.1155C23.4968 50.35 22.8846 49.7295 22.1295 49.7295C21.3745 49.7295 20.7623 50.35 20.7623 51.1155C20.7623 51.881 21.3745 52.5016 22.1295 52.5016Z" fill="#E6E6E6"/>
<path d="M29.0503 52.5016C29.8054 52.5016 30.4175 51.881 30.4175 51.1155C30.4175 50.35 29.8054 49.7295 29.0503 49.7295C28.2952 49.7295 27.6831 50.35 27.6831 51.1155C27.6831 51.881 28.2952 52.5016 29.0503 52.5016Z" fill="#E6E6E6"/>
<path d="M35.9711 52.5016C36.7262 52.5016 37.3383 51.881 37.3383 51.1155C37.3383 50.35 36.7262 49.7295 35.9711 49.7295C35.216 49.7295 34.6039 50.35 34.6039 51.1155C34.6039 51.881 35.216 52.5016 35.9711 52.5016Z" fill="#E6E6E6"/>
<path d="M42.8919 52.5016C43.647 52.5016 44.2591 51.881 44.2591 51.1155C44.2591 50.35 43.647 49.7295 42.8919 49.7295C42.1368 49.7295 41.5247 50.35 41.5247 51.1155C41.5247 51.881 42.1368 52.5016 42.8919 52.5016Z" fill="#E6E6E6"/>
<path d="M49.8128 52.5016C50.5679 52.5016 51.18 51.881 51.18 51.1155C51.18 50.35 50.5679 49.7295 49.8128 49.7295C49.0577 49.7295 48.4456 50.35 48.4456 51.1155C48.4456 51.881 49.0577 52.5016 49.8128 52.5016Z" fill="#E6E6E6"/>
<path d="M56.7337 52.5016C57.4888 52.5016 58.1009 51.881 58.1009 51.1155C58.1009 50.35 57.4888 49.7295 56.7337 49.7295C55.9786 49.7295 55.3665 50.35 55.3665 51.1155C55.3665 51.881 55.9786 52.5016 56.7337 52.5016Z" fill="#E6E6E6"/>
<path d="M63.6545 52.5016C64.4095 52.5016 65.0217 51.881 65.0217 51.1155C65.0217 50.35 64.4095 49.7295 63.6545 49.7295C62.8994 49.7295 62.2872 50.35 62.2872 51.1155C62.2872 51.881 62.8994 52.5016 63.6545 52.5016Z" fill="#E6E6E6"/>
<path d="M1.36709 59.6058C2.12218 59.6058 2.7343 58.9852 2.7343 58.2198C2.7343 57.4543 2.12218 56.8337 1.36709 56.8337C0.612 56.8337 -0.00012207 57.4543 -0.00012207 58.2198C-0.00012207 58.9852 0.612 59.6058 1.36709 59.6058Z" fill="#E6E6E6"/>
<path d="M8.28799 59.6058C9.04308 59.6058 9.6552 58.9852 9.6552 58.2198C9.6552 57.4543 9.04308 56.8337 8.28799 56.8337C7.5329 56.8337 6.92078 57.4543 6.92078 58.2198C6.92078 58.9852 7.5329 59.6058 8.28799 59.6058Z" fill="#E6E6E6"/>
<path d="M15.2086 59.6058C15.9637 59.6058 16.5759 58.9852 16.5759 58.2198C16.5759 57.4543 15.9637 56.8337 15.2086 56.8337C14.4536 56.8337 13.8414 57.4543 13.8414 58.2198C13.8414 58.9852 14.4536 59.6058 15.2086 59.6058Z" fill="#E6E6E6"/>
<path d="M22.1295 59.6058C22.8846 59.6058 23.4968 58.9852 23.4968 58.2198C23.4968 57.4543 22.8846 56.8337 22.1295 56.8337C21.3745 56.8337 20.7623 57.4543 20.7623 58.2198C20.7623 58.9852 21.3745 59.6058 22.1295 59.6058Z" fill="#E6E6E6"/>
<path d="M29.0503 59.6058C29.8054 59.6058 30.4175 58.9852 30.4175 58.2198C30.4175 57.4543 29.8054 56.8337 29.0503 56.8337C28.2952 56.8337 27.6831 57.4543 27.6831 58.2198C27.6831 58.9852 28.2952 59.6058 29.0503 59.6058Z" fill="#E6E6E6"/>
<path d="M35.9711 59.6058C36.7262 59.6058 37.3383 58.9852 37.3383 58.2198C37.3383 57.4543 36.7262 56.8337 35.9711 56.8337C35.216 56.8337 34.6039 57.4543 34.6039 58.2198C34.6039 58.9852 35.216 59.6058 35.9711 59.6058Z" fill="#E6E6E6"/>
<path d="M42.8919 59.6058C43.647 59.6058 44.2591 58.9852 44.2591 58.2198C44.2591 57.4543 43.647 56.8337 42.8919 56.8337C42.1368 56.8337 41.5247 57.4543 41.5247 58.2198C41.5247 58.9852 42.1368 59.6058 42.8919 59.6058Z" fill="#E6E6E6"/>
<path d="M49.8128 59.6058C50.5679 59.6058 51.18 58.9852 51.18 58.2198C51.18 57.4543 50.5679 56.8337 49.8128 56.8337C49.0577 56.8337 48.4456 57.4543 48.4456 58.2198C48.4456 58.9852 49.0577 59.6058 49.8128 59.6058Z" fill="#E6E6E6"/>
<path d="M56.7337 59.6058C57.4888 59.6058 58.1009 58.9852 58.1009 58.2198C58.1009 57.4543 57.4888 56.8337 56.7337 56.8337C55.9786 56.8337 55.3665 57.4543 55.3665 58.2198C55.3665 58.9852 55.9786 59.6058 56.7337 59.6058Z" fill="#E6E6E6"/>
<path d="M63.6545 59.6058C64.4095 59.6058 65.0217 58.9852 65.0217 58.2198C65.0217 57.4543 64.4095 56.8337 63.6545 56.8337C62.8994 56.8337 62.2872 57.4543 62.2872 58.2198C62.2872 58.9852 62.8994 59.6058 63.6545 59.6058Z" fill="#E6E6E6"/>
<path d="M1.36709 66.71C2.12218 66.71 2.7343 66.0894 2.7343 65.3239C2.7343 64.5585 2.12218 63.9379 1.36709 63.9379C0.612 63.9379 -0.00012207 64.5585 -0.00012207 65.3239C-0.00012207 66.0894 0.612 66.71 1.36709 66.71Z" fill="#E6E6E6"/>
<path d="M8.28799 66.71C9.04308 66.71 9.6552 66.0894 9.6552 65.3239C9.6552 64.5585 9.04308 63.9379 8.28799 63.9379C7.5329 63.9379 6.92078 64.5585 6.92078 65.3239C6.92078 66.0894 7.5329 66.71 8.28799 66.71Z" fill="#E6E6E6"/>
<path d="M15.2086 66.71C15.9637 66.71 16.5759 66.0894 16.5759 65.3239C16.5759 64.5585 15.9637 63.9379 15.2086 63.9379C14.4536 63.9379 13.8414 64.5585 13.8414 65.3239C13.8414 66.0894 14.4536 66.71 15.2086 66.71Z" fill="#E6E6E6"/>
<path d="M22.1295 66.71C22.8846 66.71 23.4968 66.0894 23.4968 65.3239C23.4968 64.5585 22.8846 63.9379 22.1295 63.9379C21.3745 63.9379 20.7623 64.5585 20.7623 65.3239C20.7623 66.0894 21.3745 66.71 22.1295 66.71Z" fill="#E6E6E6"/>
<path d="M29.0503 66.71C29.8054 66.71 30.4175 66.0894 30.4175 65.3239C30.4175 64.5585 29.8054 63.9379 29.0503 63.9379C28.2952 63.9379 27.6831 64.5585 27.6831 65.3239C27.6831 66.0894 28.2952 66.71 29.0503 66.71Z" fill="#E6E6E6"/>
<path d="M35.9711 66.71C36.7262 66.71 37.3383 66.0894 37.3383 65.3239C37.3383 64.5585 36.7262 63.9379 35.9711 63.9379C35.216 63.9379 34.6039 64.5585 34.6039 65.3239C34.6039 66.0894 35.216 66.71 35.9711 66.71Z" fill="#E6E6E6"/>
<path d="M42.8919 66.71C43.647 66.71 44.2591 66.0894 44.2591 65.3239C44.2591 64.5585 43.647 63.9379 42.8919 63.9379C42.1368 63.9379 41.5247 64.5585 41.5247 65.3239C41.5247 66.0894 42.1368 66.71 42.8919 66.71Z" fill="#E6E6E6"/>
<path d="M49.8128 66.71C50.5679 66.71 51.18 66.0894 51.18 65.3239C51.18 64.5585 50.5679 63.9379 49.8128 63.9379C49.0577 63.9379 48.4456 64.5585 48.4456 65.3239C48.4456 66.0894 49.0577 66.71 49.8128 66.71Z" fill="#E6E6E6"/>
<path d="M56.7337 66.71C57.4888 66.71 58.1009 66.0894 58.1009 65.3239C58.1009 64.5585 57.4888 63.9379 56.7337 63.9379C55.9786 63.9379 55.3665 64.5585 55.3665 65.3239C55.3665 66.0894 55.9786 66.71 56.7337 66.71Z" fill="#E6E6E6"/>
<path d="M63.6545 66.71C64.4095 66.71 65.0217 66.0894 65.0217 65.3239C65.0217 64.5585 64.4095 63.9379 63.6545 63.9379C62.8994 63.9379 62.2872 64.5585 62.2872 65.3239C62.2872 66.0894 62.8994 66.71 63.6545 66.71Z" fill="#E6E6E6"/>
<path d="M80.348 12.3872C80.8064 12.3872 81.2461 12.5719 81.5703 12.9005C81.8944 13.2291 82.0765 13.6748 82.0765 14.1396V84.2335C82.0765 84.4637 82.0318 84.6915 81.945 84.9041C81.8581 85.1167 81.7308 85.3099 81.5703 85.4726C81.4098 85.6354 81.2192 85.7644 81.0095 85.8525C80.7998 85.9406 80.575 85.9859 80.348 85.9859H30.7388C30.5118 85.9859 30.287 85.9406 30.0773 85.8525C29.8676 85.7644 29.677 85.6354 29.5165 85.4726C29.356 85.3099 29.2287 85.1167 29.1418 84.9041C29.055 84.6915 29.0103 84.4637 29.0103 84.2335V14.1396C29.0103 13.6748 29.1924 13.2291 29.5165 12.9005C29.8407 12.5719 30.2804 12.3872 30.7388 12.3872H80.348" fill="#E6E6E6"/>
<path d="M30.9401 84.0295H80.1468V14.3436H30.9401V84.0295Z" fill="white"/>
<path d="M69.1989 25.3686C69.2443 25.3686 69.2893 25.3777 69.3312 25.3953C69.3732 25.4129 69.4113 25.4387 69.4434 25.4713C69.4755 25.5038 69.501 25.5425 69.5183 25.585C69.5357 25.6275 69.5446 25.6731 69.5446 25.7191V26.4201C69.5446 26.513 69.5082 26.6021 69.4434 26.6679C69.3786 26.7336 69.2906 26.7705 69.1989 26.7705H41.8879C41.8425 26.7705 41.7976 26.7615 41.7556 26.7438C41.7137 26.7262 41.6756 26.7004 41.6435 26.6679C41.6114 26.6353 41.5859 26.5967 41.5686 26.5542C41.5512 26.5117 41.5422 26.4661 41.5422 26.4201V25.7191C41.5422 25.6731 41.5512 25.6275 41.5686 25.585C41.5859 25.5425 41.6114 25.5038 41.6435 25.4713C41.6756 25.4387 41.7137 25.4129 41.7556 25.3953C41.7976 25.3777 41.8425 25.3686 41.8879 25.3686H69.199" fill="#E6E6E6"/>
<path d="M69.1989 28.6981C69.2906 28.6981 69.3786 28.735 69.4434 28.8007C69.5082 28.8665 69.5446 28.9556 69.5446 29.0486V29.7495C69.5446 29.8424 69.5082 29.9316 69.4434 29.9973C69.3786 30.063 69.2906 30.1 69.1989 30.1H41.8879C41.8425 30.1 41.7976 30.0909 41.7556 30.0733C41.7137 30.0557 41.6756 30.0299 41.6435 29.9973C41.6114 29.9648 41.5859 29.9261 41.5686 29.8836C41.5512 29.8411 41.5422 29.7955 41.5422 29.7495V29.0486C41.5422 29.0025 41.5512 28.957 41.5686 28.9144C41.5859 28.8719 41.6114 28.8333 41.6435 28.8007C41.6756 28.7682 41.7137 28.7424 41.7556 28.7248C41.7976 28.7072 41.8425 28.6981 41.8879 28.6981H69.199" fill="#E6E6E6"/>
<path d="M69.1989 32.0275C69.2906 32.0275 69.3786 32.0645 69.4434 32.1302C69.5082 32.1959 69.5446 32.2851 69.5446 32.378V33.0789C69.5446 33.1719 69.5082 33.261 69.4434 33.3268C69.3786 33.3925 69.2906 33.4294 69.1989 33.4294H41.8879C41.7963 33.4294 41.7083 33.3925 41.6435 33.3268C41.5787 33.261 41.5422 33.1719 41.5422 33.0789V32.378C41.5422 32.2851 41.5787 32.1959 41.6435 32.1302C41.7083 32.0645 41.7963 32.0275 41.8879 32.0275H69.199" fill="#2C59AC"/>
<path d="M69.1989 35.4299C69.2906 35.4299 69.3786 35.4668 69.4434 35.5325C69.5082 35.5982 69.5446 35.6874 69.5446 35.7803V36.4813C69.5446 36.5742 69.5082 36.6634 69.4434 36.7291C69.3786 36.7948 69.2906 36.8318 69.1989 36.8318H41.8879C41.8425 36.8318 41.7976 36.8227 41.7556 36.8051C41.7137 36.7875 41.6756 36.7616 41.6435 36.7291C41.6114 36.6966 41.5859 36.6579 41.5686 36.6154C41.5512 36.5729 41.5422 36.5273 41.5422 36.4813V35.7803C41.5422 35.7343 41.5512 35.6887 41.5686 35.6462C41.5859 35.6037 41.6114 35.5651 41.6435 35.5325C41.6756 35.5 41.7137 35.4742 41.7556 35.4565C41.7976 35.4389 41.8425 35.4299 41.8879 35.4299H69.199" fill="#E6E6E6"/>
<path d="M69.1989 38.7594C69.2906 38.7594 69.3786 38.7963 69.4434 38.862C69.5082 38.9277 69.5446 39.0169 69.5446 39.1098V39.8108C69.5446 39.8568 69.5357 39.9024 69.5183 39.9449C69.501 39.9874 69.4755 40.0261 69.4434 40.0586C69.4113 40.0912 69.3732 40.117 69.3312 40.1346C69.2893 40.1522 69.2443 40.1613 69.1989 40.1613H41.8879C41.8425 40.1613 41.7976 40.1522 41.7556 40.1346C41.7137 40.117 41.6756 40.0912 41.6435 40.0586C41.6114 40.0261 41.5859 39.9874 41.5686 39.9449C41.5512 39.9024 41.5422 39.8568 41.5422 39.8108V39.1098C41.5422 39.0638 41.5512 39.0182 41.5686 38.9757C41.5859 38.9332 41.6114 38.8946 41.6435 38.862C41.6756 38.8295 41.7137 38.8037 41.7556 38.7861C41.7976 38.7684 41.8425 38.7594 41.8879 38.7594H69.199" fill="#E6E6E6"/>
<path d="M69.1989 42.0888C69.2906 42.0888 69.3786 42.1257 69.4434 42.1915C69.5082 42.2572 69.5446 42.3463 69.5446 42.4393V43.1402C69.5446 43.2332 69.5082 43.3223 69.4434 43.388C69.3786 43.4538 69.2906 43.4907 69.1989 43.4907H41.8879C41.7963 43.4907 41.7083 43.4538 41.6435 43.388C41.5787 43.3223 41.5422 43.2332 41.5422 43.1402V42.4393C41.5422 42.3463 41.5787 42.2572 41.6435 42.1915C41.7083 42.1257 41.7963 42.0888 41.8879 42.0888H69.199" fill="#E6E6E6"/>
<path d="M42.0623 53.2889C41.9559 53.289 41.8539 53.3319 41.7787 53.4082C41.7034 53.4845 41.6611 53.5879 41.661 53.6958V72.5977C41.6611 72.7055 41.7035 72.8089 41.7787 72.8852C41.8539 72.9615 41.9559 73.0044 42.0623 73.0045H68.978C69.0844 73.0044 69.1864 72.9615 69.2617 72.8852C69.3369 72.8089 69.3792 72.7055 69.3793 72.5977V53.6958C69.3792 53.5879 69.3369 53.4845 69.2617 53.4082C69.1864 53.3319 69.0844 53.289 68.978 53.2889H42.0623Z" fill="#2C59AC"/>
<path d="M55.6331 32.7893L55.3506 32.7132L61.5165 9.1993H97.2804V9.49569H61.741L55.6331 32.7893Z" fill="#3F3D56"/>
<path d="M100.203 12.4582C99.5958 12.4582 99.0026 12.2757 98.498 11.9339C97.9934 11.5921 97.6001 11.1063 97.3679 10.5379C97.1356 9.96953 97.0748 9.34409 97.1932 8.74068C97.3116 8.13728 97.6039 7.58301 98.033 7.14798C98.4621 6.71295 99.0088 6.41669 99.6041 6.29666C100.199 6.17664 100.816 6.23824 101.377 6.47368C101.938 6.70912 102.417 7.10782 102.754 7.61936C103.091 8.1309 103.271 8.73231 103.271 9.34753C103.27 10.1722 102.947 10.9629 102.371 11.5461C101.796 12.1292 101.016 12.4572 100.203 12.4582V12.4582ZM100.203 6.53315C99.6536 6.53315 99.1169 6.69821 98.6603 7.00746C98.2038 7.31671 97.8479 7.75625 97.6378 8.27052C97.4277 8.78478 97.3727 9.35066 97.4799 9.89659C97.587 10.4425 97.8514 10.944 98.2396 11.3376C98.6279 11.7312 99.1225 11.9993 99.6611 12.1078C100.2 12.2164 100.758 12.1607 101.265 11.9477C101.772 11.7347 102.206 11.3739 102.511 10.9111C102.816 10.4483 102.979 9.90417 102.979 9.34753C102.978 8.60137 102.685 7.88602 102.165 7.3584C101.644 6.83078 100.939 6.534 100.203 6.53315Z" fill="#3F3D56"/>
<path d="M100.203 10.5326C100.848 10.5326 101.372 10.002 101.372 9.34757C101.372 8.69311 100.848 8.16257 100.203 8.16257C99.5572 8.16257 99.0338 8.69311 99.0338 9.34757C99.0338 10.002 99.5572 10.5326 100.203 10.5326Z" fill="#2C59AC"/>
<path d="M54.6772 72.6127L54.9596 72.6892L48.7495 96.1912L12.9856 96.1218L12.9862 95.8254L48.5254 95.8946L54.6772 72.6127Z" fill="#3F3D56"/>
<path d="M10.0695 92.8573C10.6764 92.8585 11.2693 93.0421 11.7732 93.3848C12.2772 93.7276 12.6695 94.2142 12.9007 94.783C13.1318 95.3519 13.1914 95.9775 13.0719 96.5806C12.9524 97.1838 12.6591 97.7375 12.2291 98.1717C11.7992 98.6059 11.2519 98.9011 10.6565 99.02C10.061 99.1388 9.4442 99.076 8.88397 98.8395C8.32374 98.603 7.84528 98.2033 7.50909 97.6911C7.1729 97.1789 6.99408 96.5772 6.99524 95.962C6.99773 95.1373 7.32279 94.3472 7.89913 93.7652C8.47546 93.1832 9.256 92.8566 10.0695 92.8573V92.8573ZM10.0583 98.7823C10.6074 98.7834 11.1444 98.6194 11.6015 98.311C12.0587 98.0026 12.4153 97.5638 12.6264 97.0499C12.8375 96.5361 12.8936 95.9703 12.7875 95.4242C12.6814 94.878 12.4179 94.376 12.0304 93.9817C11.6429 93.5873 11.1488 93.3183 10.6104 93.2087C10.0721 93.099 9.51383 93.1537 9.00615 93.3657C8.49847 93.5777 8.06421 93.9376 7.75829 94.3998C7.45237 94.8621 7.28852 95.4059 7.28747 95.9625C7.2869 96.7087 7.5783 97.4246 8.09775 97.9532C8.6172 98.4819 9.32228 98.78 10.0583 98.7823V98.7823Z" fill="#3F3D56"/>
<path d="M10.0634 97.1529C10.709 97.1529 11.2323 96.6224 11.2323 95.9679C11.2323 95.3135 10.709 94.7829 10.0634 94.7829C9.41787 94.7829 8.89453 95.3135 8.89453 95.9679C8.89453 96.6224 9.41787 97.1529 10.0634 97.1529Z" fill="#2C59AC"/>
<path d="M123.777 122.179H121.715L122.083 110.606L127.534 110.904L123.777 122.179Z" fill="#FFB8B8"/>
<path d="M124.059 128.831C123.436 129.119 122.915 126.785 122.39 127.308C120.921 128.772 119.403 129.09 117.443 128.451L117.398 128.444C117.279 128.405 117.17 128.343 117.076 128.26C116.982 128.177 116.906 128.076 116.852 127.963C116.798 127.849 116.767 127.726 116.761 127.6C116.756 127.474 116.775 127.349 116.819 127.231C116.871 127.089 116.956 126.963 117.067 126.863C117.178 126.763 117.312 126.691 117.456 126.655L119.018 126.259L121.47 121.886L123.974 121.715C124.532 122.436 124.922 123.276 125.113 124.172C125.305 125.068 125.294 125.997 125.08 126.888C124.853 127.828 124.502 128.625 124.059 128.831Z" fill="#2F2E41"/>
<path d="M143.37 120.649L141.452 121.418L137.596 110.519L142.772 108.764L143.37 120.649Z" fill="#FFB8B8"/>
<path d="M146.045 126.73C145.57 127.23 144.239 125.254 143.941 125.936C143.106 127.845 141.81 128.707 139.755 128.844L139.71 128.853C139.586 128.862 139.462 128.844 139.345 128.802C139.228 128.761 139.12 128.695 139.029 128.61C138.937 128.524 138.864 128.421 138.813 128.306C138.762 128.191 138.734 128.067 138.732 127.941C138.729 127.791 138.763 127.641 138.83 127.507C138.896 127.372 138.994 127.256 139.115 127.168L140.424 126.217L141.118 121.237L143.384 120.144C144.165 120.607 144.832 121.243 145.336 122.005C145.839 122.766 146.165 123.634 146.29 124.542C146.42 125.501 146.383 126.373 146.045 126.73Z" fill="#2F2E41"/>
<path d="M137.109 64.7644L133.943 65.5898C133.703 65.6522 133.453 65.6595 133.21 65.6111C132.968 65.5626 132.739 65.4597 132.54 65.3099C132.342 65.1601 132.179 64.9671 132.064 64.7452C131.949 64.5232 131.884 64.278 131.875 64.0274C131.866 63.7969 131.904 63.5671 131.987 63.3523C132.069 63.1375 132.195 62.9422 132.355 62.7786C132.515 62.6151 132.707 62.4867 132.919 62.4016C133.13 62.3165 133.356 62.2764 133.584 62.2838L136.373 62.375L141.747 60.3912L136.667 56.5509L137.257 51.1748L147.156 59.2315C147.332 59.3751 147.478 59.5542 147.583 59.7574C147.688 59.9607 147.75 60.1838 147.766 60.4127V60.4127C147.794 60.7974 147.688 61.1798 147.468 61.4947C147.248 61.8095 146.928 62.0373 146.561 62.1392C144.241 64.0582 140.862 64.646 137.109 64.7644Z" fill="#FFB8B8"/>
<path d="M129.891 44.604C132.738 44.604 135.047 42.2639 135.047 39.3773C135.047 36.4906 132.738 34.1505 129.891 34.1505C127.044 34.1505 124.735 36.4906 124.735 39.3773C124.735 42.2639 127.044 44.604 129.891 44.604Z" fill="#FFB8B8"/>
<path d="M136.225 46.5454L129.302 49.3827C129.505 47.164 128.932 44.9435 127.682 43.1106L133.426 41.7666C133.352 43.5454 134.301 45.1354 136.225 46.5454Z" fill="#FFB8B8"/>
<path d="M137.477 58.7163C131.896 59.1691 128.844 58.4178 124.146 55.6549L125.914 51.4735C125.825 50.8439 125.909 50.2017 126.157 49.6175C126.405 49.0333 126.807 48.5297 127.319 48.162L129.155 46.8441L134.752 45.2014L135.003 45.2141C135.748 45.2518 136.453 45.5635 136.988 46.0908C137.522 46.618 137.848 47.3246 137.905 48.0782C139.121 51.7625 139.129 55.3238 137.477 58.7163Z" fill="#2C59AC"/>
<path d="M136.373 67.4524L124.441 66.1084L123.557 62.2257C121.598 59.2275 122.453 56.4813 124.735 53.8629C128.896 56.5697 132.758 57.7394 138.288 56.8496C136.817 60.4754 135.459 64.0388 136.373 67.4524Z" fill="#2F2E41"/>
<path d="M145.653 112.701L136.152 112.179L133.058 87.2394L130.554 112.029L119.285 111.507C122.722 95.2095 125.111 79.7382 124.441 65.511L136.225 66.5564C140.219 70.8255 142.202 77.6403 143.37 85.7461C144.537 93.8518 145.478 103.248 145.653 112.701Z" fill="#2F2E41"/>
<path d="M135.567 34.6191C136.545 34.6191 137.339 33.8147 137.339 32.8225C137.339 31.8303 136.545 31.0259 135.567 31.0259C134.588 31.0259 133.795 31.8303 133.795 32.8225C133.795 33.8147 134.588 34.6191 135.567 34.6191Z" fill="#2F2E41"/>
<path d="M133.741 32.3827C133.77 31.9269 133.969 31.4995 134.298 31.1875C134.627 30.8755 135.061 30.7025 135.512 30.7035C135.475 30.6988 135.439 30.6931 135.402 30.6907C134.933 30.6601 134.471 30.8197 134.118 31.1343C133.765 31.4489 133.55 31.8928 133.52 32.3683C133.489 32.8438 133.647 33.3119 133.957 33.6698C134.268 34.0276 134.705 34.2458 135.174 34.2764C135.212 34.2788 135.248 34.2779 135.285 34.278C134.838 34.2206 134.43 33.9926 134.143 33.6404C133.856 33.2883 133.712 32.8385 133.741 32.3827V32.3827Z" fill="#2F2E41"/>
<path d="M133.731 33.1498C132.15 31.8207 127.617 33.51 127.324 34.4036C125.187 34.6989 123.569 35.963 123.569 38.2107V38.2107C124.84 38.7385 126.285 38.6734 127.847 38.2107C130.337 40.2681 130.508 42.8544 128.994 45.825L130.857 45.8628L133.166 42.4409L133.277 45.9119L137.548 45.825V40.8509C137.561 39.1971 137.186 37.5637 136.452 36.0865C135.787 34.7757 134.754 34.0103 133.731 33.1498Z" fill="#2F2E41"/>
<path d="M129.754 41.938C130.222 41.938 130.601 41.3995 130.601 40.7352C130.601 40.0709 130.222 39.5324 129.754 39.5324C129.286 39.5324 128.906 40.0709 128.906 40.7352C128.906 41.3995 129.286 41.938 129.754 41.938Z" fill="#FFB8B8"/>
<path d="M123.272 86.8628C123.35 86.8628 123.426 86.8946 123.482 86.9511C123.538 87.0077 123.569 87.0844 123.569 87.1645V99.2318C123.569 99.3118 123.538 99.3885 123.482 99.4451C123.426 99.5017 123.35 99.5335 123.272 99.5335H114.731C114.652 99.5335 114.576 99.5017 114.52 99.4451C114.465 99.3885 114.433 99.3118 114.433 99.2318V87.1645C114.433 87.0844 114.465 87.0077 114.52 86.9511C114.576 86.8946 114.652 86.8628 114.731 86.8628H123.272" fill="#2C59AC"/>
<path d="M124.441 82.386L124.729 87.4541C124.748 87.7804 124.694 88.1067 124.573 88.4095C124.452 88.7122 124.265 88.9838 124.028 89.2044C123.79 89.425 123.507 89.5892 123.198 89.685C122.89 89.7809 122.565 89.8059 122.246 89.7584C120.976 89.569 120.947 88.3097 121.258 87.0471L122.445 82.2367C125.355 71.6586 126.14 61.276 125.993 51.15C125.987 50.8066 126.05 50.4656 126.178 50.1474C126.305 49.8293 126.495 49.5406 126.736 49.2989C126.976 49.0572 127.263 48.8674 127.578 48.7411C127.893 48.6147 128.23 48.5543 128.568 48.5636C128.899 48.5733 129.224 48.6492 129.525 48.7868C129.827 48.9244 130.098 49.1211 130.324 49.3655C130.55 49.6099 130.727 49.8973 130.843 50.211C130.959 50.5247 131.013 50.8586 131.001 51.1934C130.589 63.084 128.878 73.8819 124.441 82.386Z" fill="#FFB8B8"/>
</g>
<defs>
<clipPath id="clip0">
<rect width="157" height="129" fill="white"/>
</clipPath>
</defs>
</svg>
