<svg width="425" height="395" viewBox="0 0 425 395" fill="none" xmlns="http://www.w3.org/2000/svg">
<g clip-path="url(#clip0)">
<path d="M424.793 395H284.787V393.688H425L424.793 395Z" fill="#3F3D56"/>
<path d="M3.69935 8.49C5.74338 8.49 7.4004 6.58986 7.4004 4.24591C7.4004 1.90197 5.74338 0.00183105 3.69935 0.00183105C1.65531 0.00183105 -0.00170898 1.90197 -0.00170898 4.24591C-0.00170898 6.58986 1.65531 8.49 3.69935 8.49Z" fill="#E6E6E6"/>
<path d="M22.4354 8.48853C24.4795 8.48853 26.1365 6.58839 26.1365 4.24445C26.1365 1.90051 24.4795 0.000366211 22.4354 0.000366211C20.3914 0.000366211 18.7344 1.90051 18.7344 4.24445C18.7344 6.58839 20.3914 8.48853 22.4354 8.48853Z" fill="#E6E6E6"/>
<path d="M41.1701 8.48853C43.2141 8.48853 44.8711 6.58839 44.8711 4.24445C44.8711 1.90051 43.2141 0.000366211 41.1701 0.000366211C39.126 0.000366211 37.469 1.90051 37.469 4.24445C37.469 6.58839 39.126 8.48853 41.1701 8.48853Z" fill="#E6E6E6"/>
<path d="M59.9047 8.48853C61.9487 8.48853 63.6057 6.58839 63.6057 4.24445C63.6057 1.90051 61.9487 0.000366211 59.9047 0.000366211C57.8606 0.000366211 56.2036 1.90051 56.2036 4.24445C56.2036 6.58839 57.8606 8.48853 59.9047 8.48853Z" fill="#E6E6E6"/>
<path d="M78.6395 8.48853C80.6836 8.48853 82.3406 6.58839 82.3406 4.24445C82.3406 1.90051 80.6836 0.000366211 78.6395 0.000366211C76.5955 0.000366211 74.9385 1.90051 74.9385 4.24445C74.9385 6.58839 76.5955 8.48853 78.6395 8.48853Z" fill="#E6E6E6"/>
<path d="M97.3741 8.48853C99.4182 8.48853 101.075 6.58839 101.075 4.24445C101.075 1.90051 99.4182 0.000366211 97.3741 0.000366211C95.3301 0.000366211 93.6731 1.90051 93.6731 4.24445C93.6731 6.58839 95.3301 8.48853 97.3741 8.48853Z" fill="#E6E6E6"/>
<path d="M116.109 8.48853C118.153 8.48853 119.81 6.58839 119.81 4.24445C119.81 1.90051 118.153 0.000366211 116.109 0.000366211C114.065 0.000366211 112.407 1.90051 112.407 4.24445C112.407 6.58839 114.065 8.48853 116.109 8.48853Z" fill="#E6E6E6"/>
<path d="M134.844 8.48853C136.888 8.48853 138.545 6.58839 138.545 4.24445C138.545 1.90051 136.888 0.000366211 134.844 0.000366211C132.8 0.000366211 131.143 1.90051 131.143 4.24445C131.143 6.58839 132.8 8.48853 134.844 8.48853Z" fill="#E6E6E6"/>
<path d="M153.578 8.48853C155.622 8.48853 157.279 6.58839 157.279 4.24445C157.279 1.90051 155.622 0.000366211 153.578 0.000366211C151.534 0.000366211 149.877 1.90051 149.877 4.24445C149.877 6.58839 151.534 8.48853 153.578 8.48853Z" fill="#E6E6E6"/>
<path d="M172.313 8.48853C174.357 8.48853 176.014 6.58839 176.014 4.24445C176.014 1.90051 174.357 0.000366211 172.313 0.000366211C170.269 0.000366211 168.612 1.90051 168.612 4.24445C168.612 6.58839 170.269 8.48853 172.313 8.48853Z" fill="#E6E6E6"/>
<path d="M3.70057 30.2418C5.7446 30.2418 7.40162 28.3417 7.40162 25.9977C7.40162 23.6538 5.7446 21.7537 3.70057 21.7537C1.65653 21.7537 -0.000488281 23.6538 -0.000488281 25.9977C-0.000488281 28.3417 1.65653 30.2418 3.70057 30.2418Z" fill="#E6E6E6"/>
<path d="M22.4354 30.2418C24.4795 30.2418 26.1365 28.3417 26.1365 25.9977C26.1365 23.6538 24.4795 21.7537 22.4354 21.7537C20.3914 21.7537 18.7344 23.6538 18.7344 25.9977C18.7344 28.3417 20.3914 30.2418 22.4354 30.2418Z" fill="#E6E6E6"/>
<path d="M41.1701 30.2418C43.2141 30.2418 44.8711 28.3417 44.8711 25.9977C44.8711 23.6538 43.2141 21.7537 41.1701 21.7537C39.126 21.7537 37.469 23.6538 37.469 25.9977C37.469 28.3417 39.126 30.2418 41.1701 30.2418Z" fill="#E6E6E6"/>
<path d="M59.9047 30.2418C61.9487 30.2418 63.6057 28.3417 63.6057 25.9977C63.6057 23.6538 61.9487 21.7537 59.9047 21.7537C57.8606 21.7537 56.2036 23.6538 56.2036 25.9977C56.2036 28.3417 57.8606 30.2418 59.9047 30.2418Z" fill="#2C59AC"/>
<path d="M78.6395 30.2418C80.6836 30.2418 82.3406 28.3417 82.3406 25.9977C82.3406 23.6538 80.6836 21.7537 78.6395 21.7537C76.5955 21.7537 74.9385 23.6538 74.9385 25.9977C74.9385 28.3417 76.5955 30.2418 78.6395 30.2418Z" fill="#E6E6E6"/>
<path d="M97.3741 30.2418C99.4182 30.2418 101.075 28.3417 101.075 25.9977C101.075 23.6538 99.4182 21.7537 97.3741 21.7537C95.3301 21.7537 93.6731 23.6538 93.6731 25.9977C93.6731 28.3417 95.3301 30.2418 97.3741 30.2418Z" fill="#E6E6E6"/>
<path d="M116.109 30.2418C118.153 30.2418 119.81 28.3417 119.81 25.9977C119.81 23.6538 118.153 21.7537 116.109 21.7537C114.065 21.7537 112.407 23.6538 112.407 25.9977C112.407 28.3417 114.065 30.2418 116.109 30.2418Z" fill="#E6E6E6"/>
<path d="M134.844 30.2418C136.888 30.2418 138.545 28.3417 138.545 25.9977C138.545 23.6538 136.888 21.7537 134.844 21.7537C132.8 21.7537 131.143 23.6538 131.143 25.9977C131.143 28.3417 132.8 30.2418 134.844 30.2418Z" fill="#E6E6E6"/>
<path d="M153.578 30.2418C155.622 30.2418 157.279 28.3417 157.279 25.9977C157.279 23.6538 155.622 21.7537 153.578 21.7537C151.534 21.7537 149.877 23.6538 149.877 25.9977C149.877 28.3417 151.534 30.2418 153.578 30.2418Z" fill="#E6E6E6"/>
<path d="M172.313 30.2418C174.357 30.2418 176.014 28.3417 176.014 25.9977C176.014 23.6538 174.357 21.7537 172.313 21.7537C170.269 21.7537 168.612 23.6538 168.612 25.9977C168.612 28.3417 170.269 30.2418 172.313 30.2418Z" fill="#E6E6E6"/>
<path d="M3.70057 51.9949C5.7446 51.9949 7.40162 50.0947 7.40162 47.7508C7.40162 45.4069 5.7446 43.5067 3.70057 43.5067C1.65653 43.5067 -0.000488281 45.4069 -0.000488281 47.7508C-0.000488281 50.0947 1.65653 51.9949 3.70057 51.9949Z" fill="#E6E6E6"/>
<path d="M22.4354 51.9949C24.4795 51.9949 26.1365 50.0947 26.1365 47.7508C26.1365 45.4069 24.4795 43.5067 22.4354 43.5067C20.3914 43.5067 18.7344 45.4069 18.7344 47.7508C18.7344 50.0947 20.3914 51.9949 22.4354 51.9949Z" fill="#E6E6E6"/>
<path d="M41.1701 51.9949C43.2141 51.9949 44.8711 50.0947 44.8711 47.7508C44.8711 45.4069 43.2141 43.5067 41.1701 43.5067C39.126 43.5067 37.469 45.4069 37.469 47.7508C37.469 50.0947 39.126 51.9949 41.1701 51.9949Z" fill="#E6E6E6"/>
<path d="M59.9047 51.9949C61.9487 51.9949 63.6057 50.0947 63.6057 47.7508C63.6057 45.4069 61.9487 43.5067 59.9047 43.5067C57.8606 43.5067 56.2036 45.4069 56.2036 47.7508C56.2036 50.0947 57.8606 51.9949 59.9047 51.9949Z" fill="#E6E6E6"/>
<path d="M78.6395 51.9949C80.6836 51.9949 82.3406 50.0947 82.3406 47.7508C82.3406 45.4069 80.6836 43.5067 78.6395 43.5067C76.5955 43.5067 74.9385 45.4069 74.9385 47.7508C74.9385 50.0947 76.5955 51.9949 78.6395 51.9949Z" fill="#E6E6E6"/>
<path d="M97.3741 51.9949C99.4182 51.9949 101.075 50.0947 101.075 47.7508C101.075 45.4069 99.4182 43.5067 97.3741 43.5067C95.3301 43.5067 93.6731 45.4069 93.6731 47.7508C93.6731 50.0947 95.3301 51.9949 97.3741 51.9949Z" fill="#E6E6E6"/>
<path d="M116.109 51.9949C118.153 51.9949 119.81 50.0947 119.81 47.7508C119.81 45.4069 118.153 43.5067 116.109 43.5067C114.065 43.5067 112.407 45.4069 112.407 47.7508C112.407 50.0947 114.065 51.9949 116.109 51.9949Z" fill="#E6E6E6"/>
<path d="M134.844 51.9949C136.888 51.9949 138.545 50.0947 138.545 47.7508C138.545 45.4069 136.888 43.5067 134.844 43.5067C132.8 43.5067 131.143 45.4069 131.143 47.7508C131.143 50.0947 132.8 51.9949 134.844 51.9949Z" fill="#E6E6E6"/>
<path d="M153.578 51.9949C155.622 51.9949 157.279 50.0947 157.279 47.7508C157.279 45.4069 155.622 43.5067 153.578 43.5067C151.534 43.5067 149.877 45.4069 149.877 47.7508C149.877 50.0947 151.534 51.9949 153.578 51.9949Z" fill="#E6E6E6"/>
<path d="M172.313 51.9949C174.357 51.9949 176.014 50.0947 176.014 47.7508C176.014 45.4069 174.357 43.5067 172.313 43.5067C170.269 43.5067 168.612 45.4069 168.612 47.7508C168.612 50.0947 170.269 51.9949 172.313 51.9949Z" fill="#E6E6E6"/>
<path d="M3.70057 73.7481C5.7446 73.7481 7.40162 71.8479 7.40162 69.504C7.40162 67.16 5.7446 65.2599 3.70057 65.2599C1.65653 65.2599 -0.000488281 67.16 -0.000488281 69.504C-0.000488281 71.8479 1.65653 73.7481 3.70057 73.7481Z" fill="#E6E6E6"/>
<path d="M22.4354 73.7481C24.4795 73.7481 26.1365 71.8479 26.1365 69.504C26.1365 67.16 24.4795 65.2599 22.4354 65.2599C20.3914 65.2599 18.7344 67.16 18.7344 69.504C18.7344 71.8479 20.3914 73.7481 22.4354 73.7481Z" fill="#E6E6E6"/>
<path d="M41.1701 73.7481C43.2141 73.7481 44.8711 71.8479 44.8711 69.504C44.8711 67.16 43.2141 65.2599 41.1701 65.2599C39.126 65.2599 37.469 67.16 37.469 69.504C37.469 71.8479 39.126 73.7481 41.1701 73.7481Z" fill="#E6E6E6"/>
<path d="M59.9047 73.7481C61.9487 73.7481 63.6057 71.8479 63.6057 69.504C63.6057 67.16 61.9487 65.2599 59.9047 65.2599C57.8606 65.2599 56.2036 67.16 56.2036 69.504C56.2036 71.8479 57.8606 73.7481 59.9047 73.7481Z" fill="#E6E6E6"/>
<path d="M78.6395 73.7481C80.6836 73.7481 82.3406 71.8479 82.3406 69.504C82.3406 67.16 80.6836 65.2599 78.6395 65.2599C76.5955 65.2599 74.9385 67.16 74.9385 69.504C74.9385 71.8479 76.5955 73.7481 78.6395 73.7481Z" fill="#E6E6E6"/>
<path d="M97.3741 73.7481C99.4182 73.7481 101.075 71.8479 101.075 69.504C101.075 67.16 99.4182 65.2599 97.3741 65.2599C95.3301 65.2599 93.6731 67.16 93.6731 69.504C93.6731 71.8479 95.3301 73.7481 97.3741 73.7481Z" fill="#E6E6E6"/>
<path d="M116.109 73.7481C118.153 73.7481 119.81 71.8479 119.81 69.504C119.81 67.16 118.153 65.2599 116.109 65.2599C114.065 65.2599 112.407 67.16 112.407 69.504C112.407 71.8479 114.065 73.7481 116.109 73.7481Z" fill="#E6E6E6"/>
<path d="M134.844 73.7481C136.888 73.7481 138.545 71.8479 138.545 69.504C138.545 67.16 136.888 65.2599 134.844 65.2599C132.8 65.2599 131.143 67.16 131.143 69.504C131.143 71.8479 132.8 73.7481 134.844 73.7481Z" fill="#E6E6E6"/>
<path d="M153.578 73.7481C155.622 73.7481 157.279 71.8479 157.279 69.504C157.279 67.16 155.622 65.2599 153.578 65.2599C151.534 65.2599 149.877 67.16 149.877 69.504C149.877 71.8479 151.534 73.7481 153.578 73.7481Z" fill="#E6E6E6"/>
<path d="M172.313 73.7481C174.357 73.7481 176.014 71.8479 176.014 69.504C176.014 67.16 174.357 65.2599 172.313 65.2599C170.269 65.2599 168.612 67.16 168.612 69.504C168.612 71.8479 170.269 73.7481 172.313 73.7481Z" fill="#E6E6E6"/>
<path d="M3.70057 95.5011C5.7446 95.5011 7.40162 93.601 7.40162 91.257C7.40162 88.9131 5.7446 87.0129 3.70057 87.0129C1.65653 87.0129 -0.000488281 88.9131 -0.000488281 91.257C-0.000488281 93.601 1.65653 95.5011 3.70057 95.5011Z" fill="#E6E6E6"/>
<path d="M22.4354 95.5011C24.4795 95.5011 26.1365 93.601 26.1365 91.257C26.1365 88.9131 24.4795 87.0129 22.4354 87.0129C20.3914 87.0129 18.7344 88.9131 18.7344 91.257C18.7344 93.601 20.3914 95.5011 22.4354 95.5011Z" fill="#2C59AC"/>
<path d="M41.1701 95.5011C43.2141 95.5011 44.8711 93.601 44.8711 91.257C44.8711 88.9131 43.2141 87.0129 41.1701 87.0129C39.126 87.0129 37.469 88.9131 37.469 91.257C37.469 93.601 39.126 95.5011 41.1701 95.5011Z" fill="#E6E6E6"/>
<path d="M59.9047 95.5011C61.9487 95.5011 63.6057 93.601 63.6057 91.257C63.6057 88.9131 61.9487 87.0129 59.9047 87.0129C57.8606 87.0129 56.2036 88.9131 56.2036 91.257C56.2036 93.601 57.8606 95.5011 59.9047 95.5011Z" fill="#E6E6E6"/>
<path d="M78.6395 95.5011C80.6836 95.5011 82.3406 93.601 82.3406 91.257C82.3406 88.9131 80.6836 87.0129 78.6395 87.0129C76.5955 87.0129 74.9385 88.9131 74.9385 91.257C74.9385 93.601 76.5955 95.5011 78.6395 95.5011Z" fill="#E6E6E6"/>
<path d="M97.3741 95.5011C99.4182 95.5011 101.075 93.601 101.075 91.257C101.075 88.9131 99.4182 87.0129 97.3741 87.0129C95.3301 87.0129 93.6731 88.9131 93.6731 91.257C93.6731 93.601 95.3301 95.5011 97.3741 95.5011Z" fill="#E6E6E6"/>
<path d="M116.109 95.5011C118.153 95.5011 119.81 93.601 119.81 91.257C119.81 88.9131 118.153 87.0129 116.109 87.0129C114.065 87.0129 112.407 88.9131 112.407 91.257C112.407 93.601 114.065 95.5011 116.109 95.5011Z" fill="#E6E6E6"/>
<path d="M134.844 95.5011C136.888 95.5011 138.545 93.601 138.545 91.257C138.545 88.9131 136.888 87.0129 134.844 87.0129C132.8 87.0129 131.143 88.9131 131.143 91.257C131.143 93.601 132.8 95.5011 134.844 95.5011Z" fill="#E6E6E6"/>
<path d="M153.578 95.5011C155.622 95.5011 157.279 93.601 157.279 91.257C157.279 88.9131 155.622 87.0129 153.578 87.0129C151.534 87.0129 149.877 88.9131 149.877 91.257C149.877 93.601 151.534 95.5011 153.578 95.5011Z" fill="#E6E6E6"/>
<path d="M172.313 95.5011C174.357 95.5011 176.014 93.601 176.014 91.257C176.014 88.9131 174.357 87.0129 172.313 87.0129C170.269 87.0129 168.612 88.9131 168.612 91.257C168.612 93.601 170.269 95.5011 172.313 95.5011Z" fill="#E6E6E6"/>
<path d="M3.70057 117.254C5.7446 117.254 7.40162 115.354 7.40162 113.01C7.40162 110.666 5.7446 108.766 3.70057 108.766C1.65653 108.766 -0.000488281 110.666 -0.000488281 113.01C-0.000488281 115.354 1.65653 117.254 3.70057 117.254Z" fill="#E6E6E6"/>
<path d="M22.4354 117.254C24.4795 117.254 26.1365 115.354 26.1365 113.01C26.1365 110.666 24.4795 108.766 22.4354 108.766C20.3914 108.766 18.7344 110.666 18.7344 113.01C18.7344 115.354 20.3914 117.254 22.4354 117.254Z" fill="#E6E6E6"/>
<path d="M41.1701 117.254C43.2141 117.254 44.8711 115.354 44.8711 113.01C44.8711 110.666 43.2141 108.766 41.1701 108.766C39.126 108.766 37.469 110.666 37.469 113.01C37.469 115.354 39.126 117.254 41.1701 117.254Z" fill="#E6E6E6"/>
<path d="M59.9047 117.254C61.9487 117.254 63.6057 115.354 63.6057 113.01C63.6057 110.666 61.9487 108.766 59.9047 108.766C57.8606 108.766 56.2036 110.666 56.2036 113.01C56.2036 115.354 57.8606 117.254 59.9047 117.254Z" fill="#E6E6E6"/>
<path d="M78.6395 117.254C80.6836 117.254 82.3406 115.354 82.3406 113.01C82.3406 110.666 80.6836 108.766 78.6395 108.766C76.5955 108.766 74.9385 110.666 74.9385 113.01C74.9385 115.354 76.5955 117.254 78.6395 117.254Z" fill="#E6E6E6"/>
<path d="M97.3741 117.254C99.4182 117.254 101.075 115.354 101.075 113.01C101.075 110.666 99.4182 108.766 97.3741 108.766C95.3301 108.766 93.6731 110.666 93.6731 113.01C93.6731 115.354 95.3301 117.254 97.3741 117.254Z" fill="#E6E6E6"/>
<path d="M116.109 117.254C118.153 117.254 119.81 115.354 119.81 113.01C119.81 110.666 118.153 108.766 116.109 108.766C114.065 108.766 112.407 110.666 112.407 113.01C112.407 115.354 114.065 117.254 116.109 117.254Z" fill="#E6E6E6"/>
<path d="M134.844 117.254C136.888 117.254 138.545 115.354 138.545 113.01C138.545 110.666 136.888 108.766 134.844 108.766C132.8 108.766 131.143 110.666 131.143 113.01C131.143 115.354 132.8 117.254 134.844 117.254Z" fill="#E6E6E6"/>
<path d="M153.578 117.254C155.622 117.254 157.279 115.354 157.279 113.01C157.279 110.666 155.622 108.766 153.578 108.766C151.534 108.766 149.877 110.666 149.877 113.01C149.877 115.354 151.534 117.254 153.578 117.254Z" fill="#E6E6E6"/>
<path d="M172.313 117.254C174.357 117.254 176.014 115.354 176.014 113.01C176.014 110.666 174.357 108.766 172.313 108.766C170.269 108.766 168.612 110.666 168.612 113.01C168.612 115.354 170.269 117.254 172.313 117.254Z" fill="#E6E6E6"/>
<path d="M3.70057 139.007C5.7446 139.007 7.40162 137.107 7.40162 134.763C7.40162 132.419 5.7446 130.519 3.70057 130.519C1.65653 130.519 -0.000488281 132.419 -0.000488281 134.763C-0.000488281 137.107 1.65653 139.007 3.70057 139.007Z" fill="#E6E6E6"/>
<path d="M22.4354 139.007C24.4795 139.007 26.1365 137.107 26.1365 134.763C26.1365 132.419 24.4795 130.519 22.4354 130.519C20.3914 130.519 18.7344 132.419 18.7344 134.763C18.7344 137.107 20.3914 139.007 22.4354 139.007Z" fill="#E6E6E6"/>
<path d="M41.1701 139.007C43.2141 139.007 44.8711 137.107 44.8711 134.763C44.8711 132.419 43.2141 130.519 41.1701 130.519C39.126 130.519 37.469 132.419 37.469 134.763C37.469 137.107 39.126 139.007 41.1701 139.007Z" fill="#2C59AC"/>
<path d="M59.9047 139.007C61.9487 139.007 63.6057 137.107 63.6057 134.763C63.6057 132.419 61.9487 130.519 59.9047 130.519C57.8606 130.519 56.2036 132.419 56.2036 134.763C56.2036 137.107 57.8606 139.007 59.9047 139.007Z" fill="#E6E6E6"/>
<path d="M78.6395 139.007C80.6836 139.007 82.3406 137.107 82.3406 134.763C82.3406 132.419 80.6836 130.519 78.6395 130.519C76.5955 130.519 74.9385 132.419 74.9385 134.763C74.9385 137.107 76.5955 139.007 78.6395 139.007Z" fill="#E6E6E6"/>
<path d="M97.3741 139.007C99.4182 139.007 101.075 137.107 101.075 134.763C101.075 132.419 99.4182 130.519 97.3741 130.519C95.3301 130.519 93.6731 132.419 93.6731 134.763C93.6731 137.107 95.3301 139.007 97.3741 139.007Z" fill="#E6E6E6"/>
<path d="M116.109 139.007C118.153 139.007 119.81 137.107 119.81 134.763C119.81 132.419 118.153 130.519 116.109 130.519C114.065 130.519 112.407 132.419 112.407 134.763C112.407 137.107 114.065 139.007 116.109 139.007Z" fill="#E6E6E6"/>
<path d="M134.844 139.007C136.888 139.007 138.545 137.107 138.545 134.763C138.545 132.419 136.888 130.519 134.844 130.519C132.8 130.519 131.143 132.419 131.143 134.763C131.143 137.107 132.8 139.007 134.844 139.007Z" fill="#E6E6E6"/>
<path d="M153.578 139.007C155.622 139.007 157.279 137.107 157.279 134.763C157.279 132.419 155.622 130.519 153.578 130.519C151.534 130.519 149.877 132.419 149.877 134.763C149.877 137.107 151.534 139.007 153.578 139.007Z" fill="#E6E6E6"/>
<path d="M172.313 139.007C174.357 139.007 176.014 137.107 176.014 134.763C176.014 132.419 174.357 130.519 172.313 130.519C170.269 130.519 168.612 132.419 168.612 134.763C168.612 137.107 170.269 139.007 172.313 139.007Z" fill="#E6E6E6"/>
<path d="M3.70057 160.761C5.7446 160.761 7.40162 158.86 7.40162 156.517C7.40162 154.173 5.7446 152.272 3.70057 152.272C1.65653 152.272 -0.000488281 154.173 -0.000488281 156.517C-0.000488281 158.86 1.65653 160.761 3.70057 160.761Z" fill="#E6E6E6"/>
<path d="M22.4354 160.761C24.4795 160.761 26.1365 158.86 26.1365 156.517C26.1365 154.173 24.4795 152.272 22.4354 152.272C20.3914 152.272 18.7344 154.173 18.7344 156.517C18.7344 158.86 20.3914 160.761 22.4354 160.761Z" fill="#E6E6E6"/>
<path d="M41.1701 160.761C43.2141 160.761 44.8711 158.86 44.8711 156.517C44.8711 154.173 43.2141 152.272 41.1701 152.272C39.126 152.272 37.469 154.173 37.469 156.517C37.469 158.86 39.126 160.761 41.1701 160.761Z" fill="#E6E6E6"/>
<path d="M59.9047 160.761C61.9487 160.761 63.6057 158.86 63.6057 156.517C63.6057 154.173 61.9487 152.272 59.9047 152.272C57.8606 152.272 56.2036 154.173 56.2036 156.517C56.2036 158.86 57.8606 160.761 59.9047 160.761Z" fill="#E6E6E6"/>
<path d="M78.6395 160.761C80.6836 160.761 82.3406 158.86 82.3406 156.517C82.3406 154.173 80.6836 152.272 78.6395 152.272C76.5955 152.272 74.9385 154.173 74.9385 156.517C74.9385 158.86 76.5955 160.761 78.6395 160.761Z" fill="#E6E6E6"/>
<path d="M97.3741 160.761C99.4182 160.761 101.075 158.86 101.075 156.517C101.075 154.173 99.4182 152.272 97.3741 152.272C95.3301 152.272 93.6731 154.173 93.6731 156.517C93.6731 158.86 95.3301 160.761 97.3741 160.761Z" fill="#E6E6E6"/>
<path d="M116.109 160.761C118.153 160.761 119.81 158.86 119.81 156.517C119.81 154.173 118.153 152.272 116.109 152.272C114.065 152.272 112.407 154.173 112.407 156.517C112.407 158.86 114.065 160.761 116.109 160.761Z" fill="#E6E6E6"/>
<path d="M134.844 160.761C136.888 160.761 138.545 158.86 138.545 156.517C138.545 154.173 136.888 152.272 134.844 152.272C132.8 152.272 131.143 154.173 131.143 156.517C131.143 158.86 132.8 160.761 134.844 160.761Z" fill="#E6E6E6"/>
<path d="M153.578 160.761C155.622 160.761 157.279 158.86 157.279 156.517C157.279 154.173 155.622 152.272 153.578 152.272C151.534 152.272 149.877 154.173 149.877 156.517C149.877 158.86 151.534 160.761 153.578 160.761Z" fill="#E6E6E6"/>
<path d="M172.313 160.761C174.357 160.761 176.014 158.86 176.014 156.517C176.014 154.173 174.357 152.272 172.313 152.272C170.269 152.272 168.612 154.173 168.612 156.517C168.612 158.86 170.269 160.761 172.313 160.761Z" fill="#E6E6E6"/>
<path d="M3.70057 182.514C5.7446 182.514 7.40162 180.614 7.40162 178.27C7.40162 175.926 5.7446 174.026 3.70057 174.026C1.65653 174.026 -0.000488281 175.926 -0.000488281 178.27C-0.000488281 180.614 1.65653 182.514 3.70057 182.514Z" fill="#E6E6E6"/>
<path d="M22.4354 182.514C24.4795 182.514 26.1365 180.614 26.1365 178.27C26.1365 175.926 24.4795 174.026 22.4354 174.026C20.3914 174.026 18.7344 175.926 18.7344 178.27C18.7344 180.614 20.3914 182.514 22.4354 182.514Z" fill="#E6E6E6"/>
<path d="M41.1701 182.514C43.2141 182.514 44.8711 180.614 44.8711 178.27C44.8711 175.926 43.2141 174.026 41.1701 174.026C39.126 174.026 37.469 175.926 37.469 178.27C37.469 180.614 39.126 182.514 41.1701 182.514Z" fill="#E6E6E6"/>
<path d="M59.9047 182.514C61.9487 182.514 63.6057 180.614 63.6057 178.27C63.6057 175.926 61.9487 174.026 59.9047 174.026C57.8606 174.026 56.2036 175.926 56.2036 178.27C56.2036 180.614 57.8606 182.514 59.9047 182.514Z" fill="#E6E6E6"/>
<path d="M78.6395 182.514C80.6836 182.514 82.3406 180.614 82.3406 178.27C82.3406 175.926 80.6836 174.026 78.6395 174.026C76.5955 174.026 74.9385 175.926 74.9385 178.27C74.9385 180.614 76.5955 182.514 78.6395 182.514Z" fill="#E6E6E6"/>
<path d="M97.3741 182.514C99.4182 182.514 101.075 180.614 101.075 178.27C101.075 175.926 99.4182 174.026 97.3741 174.026C95.3301 174.026 93.6731 175.926 93.6731 178.27C93.6731 180.614 95.3301 182.514 97.3741 182.514Z" fill="#E6E6E6"/>
<path d="M116.109 182.514C118.153 182.514 119.81 180.614 119.81 178.27C119.81 175.926 118.153 174.026 116.109 174.026C114.065 174.026 112.407 175.926 112.407 178.27C112.407 180.614 114.065 182.514 116.109 182.514Z" fill="#E6E6E6"/>
<path d="M134.844 182.514C136.888 182.514 138.545 180.614 138.545 178.27C138.545 175.926 136.888 174.026 134.844 174.026C132.8 174.026 131.143 175.926 131.143 178.27C131.143 180.614 132.8 182.514 134.844 182.514Z" fill="#E6E6E6"/>
<path d="M153.578 182.514C155.622 182.514 157.279 180.614 157.279 178.27C157.279 175.926 155.622 174.026 153.578 174.026C151.534 174.026 149.877 175.926 149.877 178.27C149.877 180.614 151.534 182.514 153.578 182.514Z" fill="#E6E6E6"/>
<path d="M172.313 182.514C174.357 182.514 176.014 180.614 176.014 178.27C176.014 175.926 174.357 174.026 172.313 174.026C170.269 174.026 168.612 175.926 168.612 178.27C168.612 180.614 170.269 182.514 172.313 182.514Z" fill="#E6E6E6"/>
<path d="M3.70057 204.267C5.7446 204.267 7.40162 202.367 7.40162 200.023C7.40162 197.679 5.7446 195.779 3.70057 195.779C1.65653 195.779 -0.000488281 197.679 -0.000488281 200.023C-0.000488281 202.367 1.65653 204.267 3.70057 204.267Z" fill="#E6E6E6"/>
<path d="M22.4354 204.267C24.4795 204.267 26.1365 202.367 26.1365 200.023C26.1365 197.679 24.4795 195.779 22.4354 195.779C20.3914 195.779 18.7344 197.679 18.7344 200.023C18.7344 202.367 20.3914 204.267 22.4354 204.267Z" fill="#E6E6E6"/>
<path d="M41.1701 204.267C43.2141 204.267 44.8711 202.367 44.8711 200.023C44.8711 197.679 43.2141 195.779 41.1701 195.779C39.126 195.779 37.469 197.679 37.469 200.023C37.469 202.367 39.126 204.267 41.1701 204.267Z" fill="#E6E6E6"/>
<path d="M59.9047 204.267C61.9487 204.267 63.6057 202.367 63.6057 200.023C63.6057 197.679 61.9487 195.779 59.9047 195.779C57.8606 195.779 56.2036 197.679 56.2036 200.023C56.2036 202.367 57.8606 204.267 59.9047 204.267Z" fill="#E6E6E6"/>
<path d="M78.6395 204.267C80.6836 204.267 82.3406 202.367 82.3406 200.023C82.3406 197.679 80.6836 195.779 78.6395 195.779C76.5955 195.779 74.9385 197.679 74.9385 200.023C74.9385 202.367 76.5955 204.267 78.6395 204.267Z" fill="#E6E6E6"/>
<path d="M97.3741 204.267C99.4182 204.267 101.075 202.367 101.075 200.023C101.075 197.679 99.4182 195.779 97.3741 195.779C95.3301 195.779 93.6731 197.679 93.6731 200.023C93.6731 202.367 95.3301 204.267 97.3741 204.267Z" fill="#E6E6E6"/>
<path d="M116.109 204.267C118.153 204.267 119.81 202.367 119.81 200.023C119.81 197.679 118.153 195.779 116.109 195.779C114.065 195.779 112.407 197.679 112.407 200.023C112.407 202.367 114.065 204.267 116.109 204.267Z" fill="#E6E6E6"/>
<path d="M134.844 204.267C136.888 204.267 138.545 202.367 138.545 200.023C138.545 197.679 136.888 195.779 134.844 195.779C132.8 195.779 131.143 197.679 131.143 200.023C131.143 202.367 132.8 204.267 134.844 204.267Z" fill="#E6E6E6"/>
<path d="M153.578 204.267C155.622 204.267 157.279 202.367 157.279 200.023C157.279 197.679 155.622 195.779 153.578 195.779C151.534 195.779 149.877 197.679 149.877 200.023C149.877 202.367 151.534 204.267 153.578 204.267Z" fill="#E6E6E6"/>
<path d="M172.313 204.267C174.357 204.267 176.014 202.367 176.014 200.023C176.014 197.679 174.357 195.779 172.313 195.779C170.269 195.779 168.612 197.679 168.612 200.023C168.612 202.367 170.269 204.267 172.313 204.267Z" fill="#E6E6E6"/>
<path d="M217.503 37.9298C218.744 37.9298 219.934 38.4951 220.811 39.5014C221.689 40.5077 222.182 41.8725 222.182 43.2955V257.924C222.182 258.629 222.061 259.327 221.826 259.978C221.59 260.629 221.246 261.22 220.811 261.718C220.377 262.217 219.861 262.612 219.293 262.882C218.726 263.151 218.117 263.29 217.503 263.29H83.2102C82.5957 263.29 81.9873 263.151 81.4195 262.882C80.8518 262.612 80.336 262.217 79.9015 261.718C79.467 261.22 79.1223 260.629 78.8872 259.978C78.652 259.327 78.531 258.629 78.531 257.924V43.2955C78.531 41.8725 79.024 40.5077 79.9015 39.5014C80.779 38.4951 81.9692 37.9298 83.2102 37.9298H217.503" fill="#E6E6E6"/>
<path d="M83.7546 257.3H216.958V43.9204H83.7546V257.3Z" fill="white"/>
<path d="M187.322 77.6792C187.445 77.6792 187.567 77.707 187.68 77.7609C187.794 77.8148 187.897 77.8939 187.984 77.9935C188.071 78.0932 188.14 78.2115 188.187 78.3417C188.234 78.4719 188.258 78.6114 188.258 78.7524V80.8986C188.258 81.1832 188.159 81.4562 187.984 81.6575C187.808 81.8587 187.57 81.9718 187.322 81.9718H113.391C113.268 81.9718 113.146 81.944 113.033 81.8901C112.919 81.8362 112.816 81.7571 112.729 81.6575C112.642 81.5578 112.573 81.4395 112.526 81.3093C112.479 81.1791 112.455 81.0396 112.455 80.8986V78.7524C112.455 78.6114 112.479 78.4719 112.526 78.3417C112.573 78.2115 112.642 78.0932 112.729 77.9935C112.816 77.8939 112.919 77.8148 113.033 77.7609C113.146 77.707 113.268 77.6792 113.391 77.6792H187.322" fill="#E6E6E6"/>
<path d="M187.322 87.874C187.57 87.874 187.808 87.9871 187.984 88.1883C188.159 88.3896 188.258 88.6626 188.258 88.9472V91.0934C188.258 91.3781 188.159 91.651 187.984 91.8523C187.808 92.0535 187.57 92.1666 187.322 92.1666H113.391C113.268 92.1666 113.146 92.1388 113.033 92.0849C112.919 92.031 112.816 91.9519 112.729 91.8523C112.642 91.7526 112.573 91.6343 112.526 91.5041C112.479 91.3739 112.455 91.2344 112.455 91.0934V88.9472C112.455 88.8062 112.479 88.6667 112.526 88.5365C112.573 88.4063 112.642 88.288 112.729 88.1883C112.816 88.0887 112.919 88.0096 113.033 87.9557C113.146 87.9018 113.268 87.874 113.391 87.874H187.322" fill="#E6E6E6"/>
<path d="M187.322 98.069C187.57 98.069 187.808 98.182 187.984 98.3833C188.159 98.5845 188.258 98.8575 188.258 99.1421V101.288C188.258 101.573 188.159 101.846 187.984 102.047C187.808 102.248 187.57 102.362 187.322 102.362H113.391C113.143 102.362 112.905 102.248 112.729 102.047C112.554 101.846 112.455 101.573 112.455 101.288V99.1421C112.455 98.8575 112.554 98.5845 112.729 98.3833C112.905 98.182 113.143 98.069 113.391 98.069H187.322" fill="#2C59AC"/>
<path d="M187.322 108.487C187.57 108.487 187.808 108.6 187.984 108.801C188.159 109.002 188.258 109.275 188.258 109.56V111.706C188.258 111.991 188.159 112.264 187.984 112.465C187.808 112.666 187.57 112.779 187.322 112.779H113.391C113.268 112.779 113.146 112.752 113.033 112.698C112.919 112.644 112.816 112.565 112.729 112.465C112.642 112.365 112.573 112.247 112.526 112.117C112.479 111.987 112.455 111.847 112.455 111.706V109.56C112.455 109.419 112.479 109.279 112.526 109.149C112.573 109.019 112.642 108.901 112.729 108.801C112.816 108.701 112.919 108.622 113.033 108.568C113.146 108.514 113.268 108.487 113.391 108.487H187.322" fill="#E6E6E6"/>
<path d="M187.322 118.682C187.57 118.682 187.808 118.795 187.984 118.996C188.159 119.197 188.258 119.47 188.258 119.755V121.901C188.258 122.042 188.234 122.182 188.187 122.312C188.14 122.442 188.071 122.561 187.984 122.66C187.897 122.76 187.794 122.839 187.68 122.893C187.567 122.947 187.445 122.975 187.322 122.975H113.391C113.268 122.975 113.146 122.947 113.033 122.893C112.919 122.839 112.816 122.76 112.729 122.66C112.642 122.561 112.573 122.442 112.526 122.312C112.479 122.182 112.455 122.042 112.455 121.901V119.755C112.455 119.614 112.479 119.475 112.526 119.344C112.573 119.214 112.642 119.096 112.729 118.996C112.816 118.897 112.919 118.818 113.033 118.764C113.146 118.71 113.268 118.682 113.391 118.682H187.322" fill="#E6E6E6"/>
<path d="M187.322 128.877C187.57 128.877 187.808 128.99 187.984 129.191C188.159 129.392 188.258 129.665 188.258 129.95V132.096C188.258 132.381 188.159 132.654 187.984 132.855C187.808 133.056 187.57 133.169 187.322 133.169H113.391C113.143 133.169 112.905 133.056 112.729 132.855C112.554 132.654 112.455 132.381 112.455 132.096V129.95C112.455 129.665 112.554 129.392 112.729 129.191C112.905 128.99 113.143 128.877 113.391 128.877H187.322" fill="#E6E6E6"/>
<path d="M113.863 163.172C113.575 163.172 113.299 163.303 113.095 163.537C112.891 163.77 112.777 164.087 112.776 164.417V222.295C112.777 222.625 112.891 222.942 113.095 223.176C113.299 223.409 113.575 223.541 113.863 223.541H186.724C187.012 223.541 187.288 223.409 187.492 223.176C187.695 222.942 187.81 222.625 187.81 222.295V164.417C187.81 164.087 187.695 163.77 187.492 163.537C187.288 163.303 187.012 163.172 186.724 163.172H113.863Z" fill="#2C59AC"/>
<path d="M150.599 100.401L149.834 100.168L166.526 28.1685H263.339V29.076H167.133L150.599 100.401Z" fill="#3F3D56"/>
<path d="M271.249 38.1472C269.606 38.1472 268.001 37.5886 266.635 36.542C265.269 35.4954 264.204 34.0078 263.575 32.2674C262.947 30.5269 262.782 28.6118 263.103 26.7642C263.423 24.9165 264.214 23.2194 265.376 21.8873C266.538 20.5552 268.018 19.6481 269.629 19.2806C271.24 18.913 272.91 19.1017 274.428 19.8226C275.946 20.5435 277.243 21.7643 278.156 23.3307C279.068 24.897 279.555 26.7385 279.555 28.6224C279.553 31.1476 278.677 33.5686 277.12 35.3543C275.563 37.1399 273.451 38.1443 271.249 38.1472V38.1472ZM271.249 20.0047C269.763 20.0047 268.31 20.5101 267.074 21.457C265.838 22.4039 264.875 23.7498 264.306 25.3245C263.737 26.8992 263.589 28.6319 263.879 30.3036C264.169 31.9753 264.884 33.5108 265.935 34.716C266.986 35.9212 268.325 36.742 269.783 37.0745C271.241 37.407 272.752 37.2363 274.125 36.5841C275.498 35.9318 276.672 34.8273 277.498 33.4101C278.324 31.9929 278.764 30.3268 278.764 28.6224C278.762 26.3376 277.97 24.1472 276.561 22.5316C275.152 20.916 273.242 20.0073 271.249 20.0047Z" fill="#3F3D56"/>
<path d="M271.249 32.251C272.997 32.251 274.413 30.6265 274.413 28.6225C274.413 26.6186 272.997 24.994 271.249 24.994C269.502 24.994 268.085 26.6186 268.085 28.6225C268.085 30.6265 269.502 32.251 271.249 32.251Z" fill="#2C59AC"/>
<path d="M148.012 222.341L148.776 222.576L131.965 294.539L35.1521 294.326L35.1537 293.419L131.358 293.631L148.012 222.341Z" fill="#3F3D56"/>
<path d="M27.2581 284.33C28.9009 284.334 30.5059 284.896 31.87 285.946C33.2342 286.995 34.2964 288.485 34.9221 290.227C35.5479 291.969 35.7092 293.884 35.3856 295.731C35.062 297.578 34.2681 299.274 33.1042 300.603C31.9404 301.933 30.4588 302.837 28.847 303.201C27.2352 303.565 25.5654 303.372 24.0488 302.648C22.5323 301.924 21.2371 300.7 20.327 299.132C19.417 297.563 18.9329 295.721 18.9361 293.837C18.9428 291.312 19.8227 288.893 21.3829 287.11C22.943 285.328 25.0559 284.328 27.2581 284.33V284.33ZM27.2278 302.473C28.7141 302.476 30.1679 301.974 31.4053 301.03C32.6428 300.086 33.6082 298.742 34.1797 297.168C34.7511 295.595 34.9028 293.863 34.6156 292.19C34.3285 290.518 33.6153 288.981 32.5663 287.773C31.5173 286.566 30.1796 285.742 28.7224 285.406C27.2652 285.071 25.7539 285.238 24.3796 285.887C23.0053 286.536 21.8298 287.638 21.0016 289.054C20.1735 290.469 19.73 292.134 19.7271 293.839C19.7256 296.124 20.5144 298.316 21.9205 299.934C23.3267 301.553 25.2354 302.466 27.2278 302.473V302.473Z" fill="#3F3D56"/>
<path d="M27.2419 297.484C28.9894 297.484 30.4061 295.859 30.4061 293.855C30.4061 291.851 28.9894 290.227 27.2419 290.227C25.4943 290.227 24.0776 291.851 24.0776 293.855C24.0776 295.859 25.4943 297.484 27.2419 297.484Z" fill="#2C59AC"/>
<path d="M335.065 374.115H329.483L330.48 338.676L345.234 339.591L335.065 374.115Z" fill="#FFB8B8"/>
<path d="M335.827 394.481C334.142 395.363 332.731 388.218 331.31 389.82C327.334 394.3 323.226 395.276 317.919 393.32L317.796 393.296C317.476 393.178 317.18 392.987 316.926 392.734C316.672 392.481 316.466 392.171 316.319 391.824C316.173 391.477 316.089 391.099 316.074 390.714C316.058 390.328 316.111 389.943 316.23 389.582C316.371 389.15 316.602 388.764 316.902 388.456C317.202 388.149 317.563 387.93 317.954 387.818L322.182 386.606L328.821 373.217L335.598 372.692C337.109 374.901 338.164 377.474 338.683 380.218C339.201 382.961 339.171 385.804 338.593 388.532C337.978 391.411 337.029 393.853 335.827 394.481Z" fill="#2F2E41"/>
<path d="M388.104 369.43L382.912 371.785L372.472 338.41L386.486 333.038L388.104 369.43Z" fill="#FFB8B8"/>
<path d="M395.344 388.048C394.06 389.579 390.456 383.53 389.648 385.619C387.388 391.462 383.881 394.102 378.319 394.521L378.197 394.551C377.861 394.576 377.524 394.523 377.207 394.395C376.89 394.267 376.599 394.066 376.351 393.805C376.104 393.544 375.905 393.228 375.767 392.876C375.629 392.524 375.555 392.144 375.549 391.758C375.542 391.297 375.632 390.84 375.813 390.428C375.994 390.015 376.259 389.659 376.586 389.39L380.129 386.48L382.009 371.23L388.143 367.883C390.256 369.3 392.062 371.248 393.424 373.58C394.787 375.913 395.67 378.569 396.008 381.349C396.359 384.286 396.26 386.957 395.344 388.048Z" fill="#2F2E41"/>
<path d="M371.155 198.31L362.584 200.837C361.936 201.028 361.258 201.05 360.601 200.902C359.944 200.754 359.324 200.439 358.787 199.98C358.25 199.521 357.81 198.93 357.498 198.251C357.186 197.571 357.011 196.82 356.985 196.053C356.961 195.347 357.065 194.644 357.288 193.986C357.512 193.328 357.852 192.73 358.286 192.229C358.72 191.728 359.239 191.335 359.811 191.075C360.384 190.814 360.997 190.691 361.612 190.714L369.162 190.993L383.709 184.919L369.959 173.16L371.554 156.698L398.351 181.368C398.829 181.808 399.222 182.356 399.507 182.978C399.791 183.601 399.961 184.284 400.004 184.985V184.985C400.078 186.163 399.793 187.334 399.198 188.298C398.602 189.262 397.734 189.959 396.741 190.271C390.462 196.147 381.314 197.947 371.155 198.31Z" fill="#FFB8B8"/>
<path d="M351.616 136.578C359.324 136.578 365.573 129.413 365.573 120.574C365.573 111.735 359.324 104.569 351.616 104.569C343.908 104.569 337.659 111.735 337.659 120.574C337.659 129.413 343.908 136.578 351.616 136.578Z" fill="#FFB8B8"/>
<path d="M368.762 142.523L350.021 151.211C350.571 144.417 349.018 137.618 345.634 132.005L361.186 127.89C360.984 133.337 363.552 138.205 368.762 142.523Z" fill="#FFB8B8"/>
<path d="M372.152 179.79C357.044 181.177 348.78 178.876 336.064 170.416L340.849 157.613C340.609 155.685 340.837 153.718 341.508 151.93C342.179 150.141 343.268 148.599 344.653 147.473L349.622 143.437L364.775 138.407L365.455 138.446C367.47 138.562 369.38 139.516 370.826 141.131C372.272 142.745 373.156 144.909 373.31 147.216C376.602 158.498 376.624 169.402 372.152 179.79Z" fill="#2C59AC"/>
<path d="M369.161 206.54L336.862 202.425L334.469 190.536C329.166 181.355 331.481 172.946 337.659 164.929C348.922 173.217 359.376 176.799 374.345 174.074C370.364 185.176 366.688 196.088 369.161 206.54Z" fill="#2F2E41"/>
<path d="M394.283 345.093L368.563 343.492L360.189 267.128L353.41 343.035L322.905 341.435C332.21 291.533 338.675 244.16 336.862 200.596L368.763 203.797C379.574 216.869 384.943 237.736 388.103 262.556C391.263 287.376 393.81 316.148 394.283 345.093Z" fill="#2F2E41"/>
<path d="M366.98 106.004C369.63 106.004 371.777 103.541 371.777 100.503C371.777 97.4646 369.63 95.0017 366.98 95.0017C364.331 95.0017 362.183 97.4646 362.183 100.503C362.183 103.541 364.331 106.004 366.98 106.004Z" fill="#2F2E41"/>
<path d="M362.037 99.1564C362.116 97.7607 362.656 96.4519 363.547 95.4967C364.438 94.5414 365.613 94.0115 366.832 94.0148C366.733 94.0004 366.635 93.9829 366.534 93.9755C365.264 93.8818 364.014 94.3705 363.059 95.3338C362.103 96.2972 361.52 97.6563 361.439 99.1123C361.357 100.568 361.783 102.002 362.623 103.098C363.463 104.193 364.649 104.861 365.918 104.955C366.019 104.962 366.119 104.96 366.219 104.96C365.009 104.784 363.903 104.086 363.126 103.008C362.349 101.929 361.96 100.552 362.037 99.1564V99.1564Z" fill="#2F2E41"/>
<path d="M362.01 101.505C357.731 97.4353 345.46 102.608 344.668 105.344C338.883 106.248 334.502 110.119 334.502 117.002V117.002C337.942 118.618 341.854 118.419 346.083 117.002C352.824 123.301 353.286 131.221 349.186 140.317L354.23 140.432L360.482 129.955L360.781 140.583L372.342 140.317V125.086C372.379 120.022 371.363 115.021 369.377 110.497C367.575 106.484 364.78 104.14 362.01 101.505Z" fill="#2F2E41"/>
<path d="M351.244 128.415C352.511 128.415 353.538 126.766 353.538 124.732C353.538 122.698 352.511 121.049 351.244 121.049C349.977 121.049 348.95 122.698 348.95 124.732C348.95 126.766 349.977 128.415 351.244 128.415Z" fill="#FFB8B8"/>
<path d="M333.697 265.975C333.911 265.975 334.116 266.073 334.267 266.246C334.418 266.419 334.503 266.654 334.503 266.899V303.849C334.503 304.094 334.418 304.329 334.267 304.503C334.116 304.676 333.911 304.773 333.697 304.773H310.577C310.364 304.773 310.159 304.676 310.008 304.503C309.857 304.329 309.772 304.094 309.772 303.849V266.899C309.772 266.654 309.857 266.419 310.008 266.246C310.159 266.073 310.364 265.975 310.577 265.975H333.697" fill="#2C59AC"/>
<path d="M336.862 252.267L337.643 267.786C337.693 268.785 337.549 269.784 337.22 270.711C336.892 271.638 336.387 272.47 335.744 273.145C335.1 273.821 334.333 274.323 333.499 274.617C332.665 274.91 331.784 274.987 330.921 274.841C327.482 274.262 327.404 270.406 328.247 266.54L331.458 251.81C339.336 219.42 341.463 187.628 341.064 156.622C341.048 155.571 341.218 154.526 341.563 153.552C341.909 152.578 342.423 151.694 343.074 150.954C343.726 150.214 344.501 149.633 345.354 149.246C346.207 148.859 347.119 148.674 348.036 148.702C348.93 148.732 349.81 148.964 350.626 149.386C351.442 149.807 352.177 150.409 352.789 151.158C353.401 151.906 353.878 152.786 354.192 153.747C354.506 154.707 354.652 155.73 354.62 156.755C353.505 193.164 348.874 226.227 336.862 252.267Z" fill="#FFB8B8"/>
</g>
<defs>
<clipPath id="clip0">
<rect width="425" height="395" fill="white"/>
</clipPath>
</defs>
</svg>
