<svg width="84" height="42" viewBox="0 0 84 42" fill="none" xmlns="http://www.w3.org/2000/svg">
<path opacity="0.1" d="M0.683972 24.7152C2.25788 22.1504 5.81714 22.5975 8.34118 23.9363C10.8652 25.2751 13.3838 27.2736 16.1616 26.8897C18.5037 26.5657 20.4242 24.5282 21.4618 22.1777C22.4994 19.8272 22.8038 17.1768 23.0958 14.5809C23.4628 11.3197 23.8294 8.05632 24.1958 4.79091C24.3301 3.59695 24.4886 2.33679 25.1616 1.39206C26.0508 0.145914 27.6809 -0.237275 29.0753 0.137347C30.4696 0.511968 31.6587 1.51667 32.6759 2.63742C35.9346 6.22631 37.781 11.0777 40.6298 15.0716C41.2099 15.8847 41.8649 16.6884 42.7315 17.081C43.9806 17.6456 45.4148 17.2461 46.635 16.6176C50.6166 14.57 53.2914 10.3915 55.92 6.49267C57.1988 4.59776 58.7579 2.57122 60.8853 2.36483C63.1236 2.14286 65.0668 4.04556 66.3823 6.06042C70.6044 12.5435 71.5092 21.3942 76.6096 27.0486C77.2428 27.7495 77.9415 28.3975 78.7464 28.8329C79.0119 28.976 79.2887 29.0971 79.574 29.195C84.024 30.7317 85.5074 36.9001 82.2159 40.5575C82.1449 40.6354 82.0722 40.7133 81.9989 40.7912C81.5101 41.306 80.9566 41.7928 80.2961 41.9462C79.6817 42.0879 79.047 41.9244 78.438 41.7476C74.5454 40.6144 70.6996 38.8822 66.6751 38.9664C62.759 39.0442 59.0444 40.8488 55.1721 41.4984C52.5684 41.9353 49.9195 41.8481 47.2869 41.7538C38.519 41.4392 29.7529 41.0731 20.9887 40.6557C16.6386 40.4563 12.2869 40.2662 7.93755 40.0443C4.58674 39.8706 2.45228 39.4882 2.06349 35.6088C1.7231 32.2115 -1.33416 28.005 0.683972 24.7152Z" fill="#F48571"/>
</svg>
