<svg width="6" height="11" viewBox="0 0 6 11" fill="none" xmlns="http://www.w3.org/2000/svg">
<path fill-rule="evenodd" clip-rule="evenodd" d="M5.70719 0.322469C5.89468 0.529007 6 0.809096 6 1.10114C6 1.39319 5.89468 1.67328 5.70719 1.87982L2.41396 5.50665L5.70719 9.13348C5.88936 9.34121 5.99017 9.61942 5.98789 9.90819C5.98561 10.197 5.88043 10.4732 5.69501 10.6774C5.50959 10.8816 5.25876 10.9974 4.99654 11C4.73433 11.0025 4.48171 10.8915 4.29309 10.6908L0.292808 6.28532C0.105323 6.07878 4.76837e-07 5.7987 4.76837e-07 5.50665C4.76837e-07 5.2146 0.105323 4.93451 0.292808 4.72798L4.29309 0.322469C4.48063 0.115993 4.73496 0 5.00014 0C5.26533 0 5.51965 0.115993 5.70719 0.322469Z" fill="#2C59AC"/>
</svg>
