<svg width="22" height="18" viewBox="0 0 22 18" fill="none" xmlns="http://www.w3.org/2000/svg">
<path fill-rule="evenodd" clip-rule="evenodd" d="M3.75 0.5C3.94891 0.5 4.13968 0.579018 4.28033 0.71967C4.42098 0.860322 4.5 1.05109 4.5 1.25V16.25C4.5 16.4489 4.42098 16.6397 4.28033 16.7803C4.13968 16.921 3.94891 17 3.75 17C3.55109 17 3.36032 16.921 3.21967 16.7803C3.07902 16.6397 3 16.4489 3 16.25V1.25C3 1.05109 3.07902 0.860322 3.21967 0.71967C3.36032 0.579018 3.55109 0.5 3.75 0.5V0.5Z" fill="#AB4A14"/>
<path fill-rule="evenodd" clip-rule="evenodd" d="M7.28195 13.219C7.35179 13.2887 7.40721 13.3714 7.44502 13.4626C7.48283 13.5537 7.50229 13.6513 7.50229 13.75C7.50229 13.8487 7.48283 13.9463 7.44502 14.0374C7.40721 14.1286 7.35179 14.2113 7.28195 14.281L4.28195 17.281C4.21228 17.3508 4.12952 17.4063 4.0384 17.4441C3.94728 17.4819 3.8496 17.5013 3.75095 17.5013C3.6523 17.5013 3.55461 17.4819 3.4635 17.4441C3.37238 17.4063 3.28962 17.3508 3.21995 17.281L0.219947 14.281C0.0791175 14.1402 0 13.9492 0 13.75C0 13.5508 0.0791175 13.3598 0.219947 13.219C0.360777 13.0782 0.551784 12.9991 0.750947 12.9991C0.950111 12.9991 1.14112 13.0782 1.28195 13.219L3.75095 15.6895L6.21995 13.219C6.28962 13.1492 6.37238 13.0937 6.4635 13.0559C6.55461 13.0181 6.6523 12.9987 6.75095 12.9987C6.8496 12.9987 6.94728 13.0181 7.0384 13.0559C7.12952 13.0937 7.21228 13.1492 7.28195 13.219V13.219ZM9.75095 6.25C9.75095 6.44891 9.82996 6.63968 9.97062 6.78033C10.1113 6.92098 10.302 7 10.5009 7H15.0009C15.1999 7 15.3906 6.92098 15.5313 6.78033C15.6719 6.63968 15.7509 6.44891 15.7509 6.25C15.7509 6.05109 15.6719 5.86032 15.5313 5.71967C15.3906 5.57902 15.1999 5.5 15.0009 5.5H10.5009C10.302 5.5 10.1113 5.57902 9.97062 5.71967C9.82996 5.86032 9.75095 6.05109 9.75095 6.25ZM9.75095 10.75C9.75095 10.9489 9.82996 11.1397 9.97062 11.2803C10.1113 11.421 10.302 11.5 10.5009 11.5H18.0009C18.1999 11.5 18.3906 11.421 18.5313 11.2803C18.6719 11.1397 18.7509 10.9489 18.7509 10.75C18.7509 10.5511 18.6719 10.3603 18.5313 10.2197C18.3906 10.079 18.1999 10 18.0009 10H10.5009C10.302 10 10.1113 10.079 9.97062 10.2197C9.82996 10.3603 9.75095 10.5511 9.75095 10.75ZM9.75095 15.25C9.75095 15.4489 9.82996 15.6397 9.97062 15.7803C10.1113 15.921 10.302 16 10.5009 16H21.0009C21.1999 16 21.3906 15.921 21.5313 15.7803C21.6719 15.6397 21.7509 15.4489 21.7509 15.25C21.7509 15.0511 21.6719 14.8603 21.5313 14.7197C21.3906 14.579 21.1999 14.5 21.0009 14.5H10.5009C10.302 14.5 10.1113 14.579 9.97062 14.7197C9.82996 14.8603 9.75095 15.0511 9.75095 15.25ZM9.75095 1.75C9.75095 1.94891 9.82996 2.13968 9.97062 2.28033C10.1113 2.42098 10.302 2.5 10.5009 2.5H12.0009C12.1999 2.5 12.3906 2.42098 12.5313 2.28033C12.6719 2.13968 12.7509 1.94891 12.7509 1.75C12.7509 1.55109 12.6719 1.36032 12.5313 1.21967C12.3906 1.07902 12.1999 1 12.0009 1H10.5009C10.302 1 10.1113 1.07902 9.97062 1.21967C9.82996 1.36032 9.75095 1.55109 9.75095 1.75Z" fill="#AB4A14"/>
</svg>
