<svg width="3" height="14" viewBox="0 0 3 14" fill="none" xmlns="http://www.w3.org/2000/svg">
<path fill-rule="evenodd" clip-rule="evenodd" d="M3 12.3846C3 12.813 2.84196 13.2239 2.56066 13.5269C2.27936 13.8298 1.89782 14 1.5 14C1.10218 14 0.720644 13.8298 0.43934 13.5269C0.158035 13.2239 0 12.813 0 12.3846C0 11.9562 0.158035 11.5453 0.43934 11.2424C0.720644 10.9394 1.10218 10.7692 1.5 10.7692C1.89782 10.7692 2.27936 10.9394 2.56066 11.2424C2.84196 11.5453 3 11.9562 3 12.3846ZM3 7C3 7.42843 2.84196 7.83931 2.56066 8.14225C2.27936 8.44519 1.89782 8.61539 1.5 8.61539C1.10218 8.61539 0.720644 8.44519 0.43934 8.14225C0.158035 7.83931 0 7.42843 0 7C0 6.57157 0.158035 6.16069 0.43934 5.85775C0.720644 5.55481 1.10218 5.38462 1.5 5.38462C1.89782 5.38462 2.27936 5.55481 2.56066 5.85775C2.84196 6.16069 3 6.57157 3 7V7ZM3 1.61538C3 2.04381 2.84196 2.45469 2.56066 2.75763C2.27936 3.06058 1.89782 3.23077 1.5 3.23077C1.10218 3.23077 0.720644 3.06058 0.43934 2.75763C0.158035 2.45469 0 2.04381 0 1.61538C0 1.18696 0.158035 0.776079 0.43934 0.473135C0.720644 0.170192 1.10218 0 1.5 0C1.89782 0 2.27936 0.170192 2.56066 0.473135C2.84196 0.776079 3 1.18696 3 1.61538V1.61538Z" fill="#2C59AC"/>
</svg>
